<svg height="30" viewBox="0 0 39 30" width="39" xmlns="http://www.w3.org/2000/svg"><path d="m11.966 4.765c-1.0955041-.00275821-1.98165915-.89249365-1.98-1.988 0-1.096.888-1.987 1.98-1.987h24.77c1.091 0 1.979.89 1.979 1.987.0016592 1.09550635-.8844959 1.98524179-1.98 1.988h-24.768zm-9.487 0c-1.09511326-.00330892-1.98066009-.89288299-1.979-1.988 0-1.097.888-1.987 1.98-1.987h.923c1.091 0 1.979.89 1.979 1.987.00166009 1.09511701-.88388674 1.98469108-1.979 1.988h-.923zm9.487 12.61c-1.0955041-.0027582-1.98165915-.8924937-1.98-1.988 0-1.095.888-1.987 1.98-1.987h24.77c1.091 0 1.979.892 1.979 1.987.0016592 1.0955063-.8844959 1.9852418-1.98 1.988h-24.768zm-9.487 0c-1.09511326-.0033089-1.98066009-.892883-1.979-1.988 0-1.095.888-1.987 1.979-1.987h.923c1.091 0 1.979.892 1.979 1.987.00166009 1.095117-.88388674 1.9846911-1.979 1.988h-.922zm0 12.611c-1.09511326-.0033089-1.98066009-.892883-1.979-1.988 0-1.096.888-1.988 1.979-1.988h.923c1.091 0 1.979.892 1.979 1.988.00166009 1.095117-.88388674 1.9846911-1.979 1.988h-.922zm9.487 0c-1.0955041-.0027582-1.98165915-.8924937-1.98-1.988 0-1.096.888-1.988 1.98-1.988h24.77c1.091 0 1.979.892 1.979 1.988.0016592 1.0955063-.8844959 1.9852418-1.98 1.988h-24.768z" fill-rule="evenodd"/></svg>