<svg height="48" viewBox="0 0 48 48" width="48" xmlns="http://www.w3.org/2000/svg" xmlns:xlink="http://www.w3.org/1999/xlink"><mask id="a" fill="#fff"><path d="m0 .02h34.997v34.98h-34.997z" fill="#fff" fill-rule="evenodd"/></mask><g fill="#d8d9db" fill-rule="evenodd"><path d="m13.965 25.825-4.79-4.79c1.078-2.192 4.653-8.993 9.778-14.118 3.8-3.8 7.41-4.598 9.77-4.598 1.605 0 2.82.36 3.39.57.54 1.458 2.038 7.088-4.03 13.157-5.117 5.117-11.926 8.698-14.118 9.78m5.558-.413-2.494 6.825-1.826-4.456a63.405 63.405 0 0 0 4.32-2.369m-12.306-5.617-4.457-1.826 6.843-2.52a64.017 64.017 0 0 0 -2.385 4.347m26.8-18.304-.17-.34-.342-.172c-.078-.04-1.948-.961-4.783-.961-2.794 0-7.039.914-11.397 5.271-2.21 2.211-4.12 4.68-5.696 6.99l-10.29 3.76a2.025 2.025 0 0 0 -1.34 1.875 2.03 2.03 0 0 0 1.265 1.927l5.87 2.405.072.072-4.16 3.53 2.873.512-1.623 4.34 4.33-1.619v2.71l4.028-4.025.097.096 2.405 5.871a2.033 2.033 0 0 0 1.886 1.265c.866 0 1.618-.527 1.915-1.34l3.761-10.29c2.311-1.576 4.78-3.486 6.99-5.697 8.184-8.184 4.471-15.858 4.31-16.18" mask="url(#a)" transform="translate(6 6.98)"/><path d="m29.613 14.619a3.748 3.748 0 1 0 0 7.496 3.748 3.748 0 0 0 0-7.496"/></g></svg>