<svg height="48" viewBox="0 0 48 48" width="48" xmlns="http://www.w3.org/2000/svg"><path d="m31.378 6c3.1 0 5.622 2.516 5.622 5.609v23.783c0 3.093-2.521 5.608-5.622 5.608h-15.43c-3.1 0-5.622-2.515-5.622-5.608v-4.425c0-.756.615-1.37 1.373-1.37s1.373.614 1.373 1.37v4.425a2.875 2.875 0 0 0 2.876 2.869h15.43a2.875 2.875 0 0 0 2.876-2.869v-23.783c0-1.583-1.29-2.87-2.876-2.87h-15.43a2.875 2.875 0 0 0 -2.876 2.87v4.424a1.37 1.37 0 0 1 -1.373 1.37 1.371 1.371 0 0 1 -1.373-1.37v-4.424c0-3.093 2.522-5.609 5.622-5.609zm-11.746 24.01 5.15-5.14h-19.41a1.37 1.37 0 1 1 0-2.74h19.41l-5.15-5.139a1.367 1.367 0 0 1 0-1.936 1.374 1.374 0 0 1 1.94 0l7.494 7.476c.064.064.122.134.172.21.023.033.038.07.057.104.024.044.05.085.07.131.018.045.029.093.042.139.012.039.027.076.035.117.035.177.035.36 0 .537-.008.04-.023.078-.035.117-.013.046-.024.093-.043.138-.019.046-.045.088-.07.131-.018.035-.033.071-.056.105-.05.075-.108.145-.172.21l-7.493 7.476c-.268.268-.62.401-.97.401a1.369 1.369 0 0 1 -.971-2.338z" fill="#d8d9db" fill-rule="evenodd"/></svg>