<svg height="40" viewBox="0 0 34 40" width="34" xmlns="http://www.w3.org/2000/svg"><path d="m33.14 31.444c.188.23.301.523.301.842-.0018285.3576674-.1465712.6997603-.4020064.9501244s-.6003614.3882187-.9579936.3828756h-8.628c-.363 3.228-3.133 5.746-6.49 5.746-3.355 0-6.125-2.518-6.488-5.746h-8.628c-.48642014.0008223-.93567277-.2600957-1.176-.683-.23834651-.4214461-.22683291-.9395579.03-1.35l5.358-8.601v-8.99c0-3.534 2.113-7.228 6.103-8.896v-.345c0-2.62 2.154-4.754 4.802-4.754s4.802 2.133 4.802 4.754v.345c3.99 1.668 6.104 5.362 6.104 8.896v8.99zm-28.88-.491h25.409l-4.293-6.89c-.13-.21-.2-.453-.2-.7v-9.368c0-2.762-2.23-7.144-8.212-7.144s-8.211 4.382-8.211 7.144v9.368c0 .247-.07.49-.201.7zm12.704 5.746c1.8295157.0036706 3.4065912-1.2861309 3.766-3.08h-7.532c.3590519 1.7940838 1.9363447 3.0840631 3.766 3.08zm0-34.032c-1.0016734-.00225219-1.8661915.7016588-2.067 1.683.657-.1 1.34-.165 2.067-.165.726 0 1.41.065 2.067.166-.2003942-.98173884-1.0650198-1.68615564-2.067-1.684z"/></svg>