<svg xmlns="http://www.w3.org/2000/svg" width="48" height="48" viewBox="0 0 48 48">
    <path fill="#D8D9DB" fill-rule="evenodd" d="M37.532 36.127c-1.168-2.576-4.132-5.628-8.705-6.95a8.843 8.843 0 0 0 3.806-7.292c0-4.852-3.873-8.8-8.633-8.8-4.761 0-8.634 3.948-8.634 8.8a8.844 8.844 0 0 0 3.807 7.293c-4.573 1.321-7.537 4.373-8.705 6.949A18.106 18.106 0 0 1 5.818 24C5.819 13.974 13.975 5.819 24 5.819c10.026 0 18.181 8.155 18.181 18.18 0 4.657-1.76 8.908-4.649 12.128m-19.37-14.242c0-3.282 2.618-5.95 5.838-5.95s5.838 2.668 5.838 5.95c0 3.28-2.619 5.95-5.838 5.95-3.22 0-5.838-2.67-5.838-5.95m-5.449 16.353c.176-1.912 4.041-6.88 11.287-6.88s11.111 4.968 11.287 6.88A18.088 18.088 0 0 1 24 42.181a18.086 18.086 0 0 1-11.287-3.943M24 3C12.42 3 3 12.42 3 24s9.42 21 21 21 21-9.42 21-21S35.58 3 24 3"/>
</svg>
