<svg height="48" viewBox="0 0 48 48" width="48" xmlns="http://www.w3.org/2000/svg"><path d="m30.868 36.164h-22.576v-2.122c0-1.787 3.881-6.95 11.288-6.95 7.406 0 11.288 5.163 11.288 6.95zm-17.118-18.45c0-3.25 2.614-5.893 5.83-5.893 3.214 0 5.83 2.642 5.83 5.892 0 3.249-2.616 5.891-5.83 5.891-3.216 0-5.83-2.642-5.83-5.89zm10.65 7.219a8.736 8.736 0 0 0 3.801-7.22c0-4.803-3.867-8.713-8.621-8.713-4.755 0-8.622 3.91-8.622 8.713 0 3.001 1.51 5.653 3.801 7.22-6.024 1.727-9.259 6.435-9.259 9.109v3.532c0 .78.625 1.411 1.396 1.411h25.367c.772 0 1.396-.631 1.396-1.411v-3.532c0-2.674-3.235-7.382-9.259-9.11zm17.416-5.477h-3.549v-3.519c0-.77-.63-1.395-1.407-1.395s-1.407.625-1.407 1.395v3.519h-3.55c-.776 0-1.407.625-1.407 1.395s.631 1.396 1.408 1.396h3.549v3.517c0 .771.63 1.396 1.407 1.396.778 0 1.407-.625 1.407-1.396v-3.517h3.55c.776 0 1.407-.626 1.407-1.396s-.63-1.395-1.408-1.395" fill="#d8d9db" fill-rule="evenodd"/></svg>