<svg height="22" viewBox="0 0 35 22" width="35" xmlns="http://www.w3.org/2000/svg"><path d="m17.365 5.953c-10.462 0-14.75 6.754-14.928 7.041-.19194648.3103887-.19194648.7026113 0 1.013.178.287 4.466 7.042 14.928 7.042s14.75-6.755 14.928-7.042c.1919465-.3103887.1919465-.7026113 0-1.013-.178-.282-4.466-7.041-14.928-7.041zm-5.029 7.548c-.048793-2.0442541 1.1450637-3.91451638 3.0198807-4.73086004s4.0572624-.4162104 5.5205326 1.01214388c1.4632703 1.42835426 1.9159847 3.60050166 1.1451487 5.49448366-.7708359 1.893982-2.6117257 3.1326503-4.656562 3.1332325-2.7428311.0294625-4.9922249-2.1662572-5.029-4.909zm.2-4.983c-1.4077383 1.27731959-2.2094639 3.0905248-2.2069871 4.9913842s.8089249 3.7119691 2.2199871 4.9856158c-3.14644543-.7443447-5.96322442-2.4970618-8.021-4.991 2.06669624-2.4750299 4.87225691-4.2225034 8.005-4.986zm9.662 9.966c1.4076771-1.2777023 2.2094072-3.0910899 2.2071212-4.9921613-.0022861-1.9010715-.8083752-3.71252566-2.2191212-4.9868387 3.1467978.74475477 5.9638702 2.4977871 8.022 4.992-2.0678888 2.4777029-4.8767858 4.2258583-8.013 4.987zm-4.83-14.059c.5468769.00388862.9939556-.4351427 1-.982v-2.451c0-.55504617-.4499538-1.005-1.005-1.005s-1.005.44995383-1.005 1.005v2.451c.0031622.26380679.1110708.51553466.2999537.69972827.1888828.18419361.4432434.28574112.7070463.28227173zm7.53 1.517c.5060397.21560838 1.0917013-.01155736 1.32-.512l.994-2.251c.1047736-.24033262.1081254-.51277722.0092962-.75561472-.0988292-.24283751-.2914752-.43551557-.5342962-.53438528-.5063086-.2154783-1.0920743.01217156-1.32.513l-.994 2.251c-.1049081.23981085-.1086617.51179754-.0104112.75441208.0982504.24261453.2901995.43534846.5324112.53458792zm8.164 1.235-1.826 1.682c-.1933686.17618388-.3069242.42332352-.3146536.68480476-.0077295.26148124.0910296.51489694.2736536.70219524.3852999.3945277 1.0141165.4122283 1.421.04l1.825-1.682c.1935049-.17604525.3072447-.42310933.3151627-.6845924.0079181-.26148308-.0906643-.51497652-.2731627-.7024076-.3858743-.39593477-1.0165082-.4136492-1.424-.04zm-24.543-1.747c.22789014.50030947.81324157.727527 1.319.512.2429354-.09843524.4357546-.2909069.5346279-.53366437s.0954009-.51517719-.0096279-.75533563l-.994-2.251c-.22751687-.50069533-.81297254-.72839719-1.319-.513-.24300093.09867607-.43587558.29127307-.53490161.53413159-.09902604.24285852-.0958163.51540931.00890161.75586841zm-4.978 4.816c.18262402-.1872983.28138305-.440714.27365361-.70219524s-.12128498-.50862088-.31465361-.68480476l-1.825-1.682c-.4070796-.37170119-1.03547461-.35401238-1.421.04-.18262402.1872983-.28138305.440714-.27365361.70219524s.12128499.50862088.31465361.68480476l1.825 1.682c.40646885.3702846 1.03305143.3526095 1.418-.04z" fill-rule="evenodd"/></svg>