<svg height="34" viewBox="0 0 34 34" width="34" xmlns="http://www.w3.org/2000/svg"><path d="m30.864 16.528c.18.289.181.651.002.94-.148.24-3.722 5.86-12.36 6.469l-.068.002a.922.922 0 0 1 -.93-.844.917.917 0 0 1 .864-.972c.227-.016.444-.044.667-.068 5.87-.629 8.918-3.818 9.885-5.05-.617-.768-2.08-2.34-4.517-3.54-.022-.012-.034-.03-.054-.04-.415-.245-.581-.753-.36-1.181a.949.949 0 0 1 1.255-.4c3.844 1.89 5.546 4.572 5.616 4.684zm-10.121-3.68-2.95 4.63-5.792 9.091a.94.94 0 0 1 -.795.431.954.954 0 0 1 -.49-.136.896.896 0 0 1 -.301-1.252l1.46-2.29c-6.037-1.619-8.625-5.667-8.738-5.85a.883.883 0 0 1 -.002-.942c.164-.265 4.147-6.519 13.865-6.519 1.077 0 2.124.104 3.181.274l1.82-2.855a.95.95 0 0 1 1.284-.294.895.895 0 0 1 .3 1.251l-2.14 3.358v.003zm-8.23-.462c-4.259 1.106-6.607 3.573-7.434 4.611.83 1.03 3.202 3.482 7.413 4.589-1.284-1.185-2.03-2.821-2.03-4.586 0-1.817.791-3.454 2.05-4.614zm1.284 7.917 3.348-5.255 1.473-2.309a4.744 4.744 0 0 0 -1.618-.285c-2.576 0-4.67 2.04-4.67 4.546 0 1.271.535 2.453 1.467 3.303z" fill-rule="evenodd"/></svg>