<svg height="512pt" viewBox="0 -17 512 512" width="512pt" xmlns="http://www.w3.org/2000/svg"><path fill="#ffffff" d="m86.390625 222.644531h30v30h-30zm0 0"/><path fill="#ffffff" d="m157.878906 207.644531h30v30h-30zm0 0"/><path fill="#ffffff" d="m142.878906 277.898438h30v30h-30zm0 0"/><path fill="#ffffff" d="m450.617188 134.320312 31.070312-41.621093c19.132812-25.636719 13.847656-62.058594-11.789062-81.199219-25.636719-19.132812-62.0625-13.847656-81.207032 11.800781l-82.722656 111.019531h-305.96875v15c0 44.75 11.722656 88.800782 33.894531 127.386719l19.511719 34.582031c26.171875 46.398438 40.007812 99.082032 40.007812 152.355469v15h114.304688l12.09375-75.867187c23.902344 3.378906 48.480469 3.378906 72.382812 0l12.09375 75.867187h114.304688v-15c0-53.273437 13.835938-105.957031 40.011719-152.359375l19.582031-34.726562c22.121094-38.550782 33.8125-82.542969 33.8125-127.238282v-15zm-37.875-93.085937c9.242187-12.378906 26.832031-14.929687 39.210937-5.691406 12.378906 9.242187 14.933594 26.832031 5.691406 39.210937l-44.464843 59.566406h-69.796876zm39.402343 220.433594-.054687.09375c-.007813.015625-.015625.03125-.023438.046875l-.007812.011718-19.582032 34.730469c-26.246093 46.523438-41.179687 98.816407-43.546874 152.097657h-59.042969l-12.925781-81.074219-15.355469 3.148437c-29.804688 6.105469-61.402344 6.105469-91.203125 0l-15.355469-3.144531-12.925781 81.070313h-59.039063c-2.367187-53.277344-17.300781-105.570313-43.550781-152.097657l-19.53125-34.628906-.0625-.109375c-17.101562-29.738281-27.164062-63.171875-29.441406-97.488281h451.007812c-2.273437 34.261719-12.308594 67.640625-29.359375 97.34375zm0 0"/></svg>