<svg id="Capa_1" enable-background="new 0 0 477.478 477.478" height="512" viewBox="0 0 477.478 477.478" width="512" xmlns="http://www.w3.org/2000/svg"><path fill="#FFFFFF" d="m102.2 426.787v19.838c-.131 9.829 7.698 17.92 17.526 18.114h238.026c9.828-.194 17.656-8.284 17.526-18.113v-19.838c64.047-44.645 102.213-117.789 102.2-195.861v-14.618c0-3.314-2.686-6-6-6h-465.478c-3.314 0-6 2.686-6 6v14.618c-.013 78.071 38.153 151.215 102.2 195.86zm255.376 25.952h-237.674c-3.212-.09-5.753-2.747-5.7-5.96 0-.036 0-.071 0-.107v-18.112h249.076v18.112.107c.053 3.213-2.489 5.871-5.702 5.96zm-345.576-230.43h453.478v8.618c-.006 12.489-1.043 24.957-3.1 37.276h-331c-3.314 0-6 2.686-6 6s2.686 6 6 6h328.682c-12.304 55.23-44.811 103.866-91.137 136.357h-260.368c-46.326-32.491-78.832-81.127-91.136-136.357h76.247c3.314 0 6-2.686 6-6s-2.686-6-6-6h-78.566c-2.057-12.319-3.094-24.787-3.1-37.276z"/><path fill="#FFFFFF" d="m214.702 60.923c0-9.766-4.124-14.925-7.438-19.07-2.794-3.494-4.811-6.019-4.811-11.577 0-3.314-2.686-6-6-6s-6 2.686-6 6c0 9.765 4.124 14.924 7.437 19.07 2.794 3.494 4.812 6.018 4.812 11.577s-2.019 8.083-4.812 11.577c-3.313 4.145-7.437 9.3-7.437 19.07s4.124 14.922 7.438 19.067c2.793 3.494 4.811 6.018 4.811 11.575s-2.018 8.082-4.811 11.575c-3.314 4.145-7.438 9.305-7.438 19.069 0 3.314 2.686 6 6 6s6-2.686 6-6c0-5.557 2.017-8.082 4.811-11.575 3.314-4.146 7.438-9.305 7.438-19.069s-4.124-14.923-7.439-19.068c-2.793-3.493-4.81-6.017-4.81-11.574s2.017-8.083 4.811-11.577c3.314-4.146 7.438-9.305 7.438-19.07z"/><path fill="#FFFFFF" d="m348.221 52.27c0-10.341-4.037-15.866-7.28-20.305-2.885-3.949-4.97-6.8-4.97-13.226 0-3.314-2.686-6-6-6s-6 2.686-6 6c0 10.341 4.038 15.866 7.281 20.305 2.884 3.949 4.969 6.8 4.969 13.226s-2.085 9.278-4.969 13.226c-3.243 4.439-7.281 9.964-7.281 20.3s4.038 15.865 7.281 20.3c2.885 3.947 4.969 6.8 4.969 13.223s-2.084 9.276-4.969 13.224c-3.243 4.439-7.281 9.963-7.281 20.3 0 3.314 2.686 6 6 6s6-2.686 6-6c0-6.423 2.085-9.276 4.97-13.224 3.243-4.439 7.28-9.963 7.28-20.3s-4.037-15.864-7.28-20.3c-2.886-3.948-4.97-6.8-4.97-13.224s2.085-9.277 4.97-13.226c3.243-4.43 7.28-9.957 7.28-20.299z"/><path fill="#FFFFFF" d="m154.068 60.923c0-9.766-4.124-14.925-7.438-19.07-2.793-3.494-4.812-6.019-4.812-11.577 0-3.314-2.686-6-6-6s-6 2.686-6 6c0 9.765 4.124 14.924 7.439 19.07 2.793 3.494 4.811 6.018 4.811 11.577s-2.018 8.083-4.811 11.577c-3.315 4.145-7.439 9.3-7.439 19.07s4.125 14.922 7.439 19.068c2.793 3.493 4.811 6.017 4.811 11.574s-2.018 8.082-4.811 11.575c-3.314 4.145-7.439 9.305-7.439 19.069 0 3.314 2.686 6 6 6s6-2.686 6-6c0-5.557 2.019-8.082 4.812-11.575 3.314-4.146 7.438-9.3 7.438-19.069s-4.125-14.923-7.438-19.068c-2.793-3.493-4.812-6.017-4.812-11.574s2.019-8.083 4.812-11.577c3.314-4.146 7.438-9.305 7.438-19.07z"/><path fill="#FFFFFF" d="m287.587 52.27c0-10.341-4.037-15.866-7.281-20.305-2.884-3.949-4.969-6.8-4.969-13.226 0-3.314-2.686-6-6-6s-6 2.686-6 6c0 10.341 4.037 15.866 7.28 20.305 2.885 3.949 4.97 6.8 4.97 13.226s-2.085 9.278-4.97 13.226c-3.243 4.439-7.28 9.964-7.28 20.3s4.037 15.865 7.28 20.3c2.886 3.947 4.97 6.8 4.97 13.223s-2.084 9.276-4.97 13.224c-3.243 4.439-7.28 9.963-7.28 20.3 0 3.314 2.686 6 6 6s6-2.686 6-6c0-6.423 2.085-9.276 4.969-13.224 3.244-4.439 7.281-9.963 7.281-20.3s-4.037-15.864-7.281-20.3c-2.885-3.948-4.969-6.8-4.969-13.224s2.085-9.277 4.969-13.226c3.244-4.43 7.281-9.957 7.281-20.299z"/><path fill="#FFFFFF" d="m379.103 384.661c1.606.002 3.145-.641 4.271-1.786 16.177-16.381 29.894-35.02 40.724-55.336 1.6-2.902.545-6.551-2.356-8.152s-6.551-.545-8.152 2.356c-.028.05-.055.101-.081.152-10.286 19.295-23.313 36.997-38.676 52.556-2.327 2.359-2.302 6.158.057 8.485 1.123 1.108 2.636 1.729 4.213 1.729z"/></svg>