<svg id="Capa_1" enable-background="new 0 0 512.458 512.458" height="512" viewBox="0 0 512.458 512.458" width="512" xmlns="http://www.w3.org/2000/svg"><g><g><g><g><path fill="#ffffff" d="m490.757 228.384c0-42.396-11.723-83.127-33.004-118.266 5.183-7.78 12.679-15.265 23.401-19.274 3.818-1.429 6.285-4.994 6.285-9.085s-2.467-7.656-6.286-9.086c-20.021-7.485-28.805-27.093-32.258-38.114-1.274-4.067-4.997-6.801-9.264-6.801s-7.989 2.732-9.264 6.8c-2.128 6.793-6.286 16.844-13.846 25.312-8.415-7.694-17.45-14.825-27.088-21.289-3.441-2.308-8.1-1.389-10.406 2.051-2.308 3.44-1.39 8.1 2.051 10.406 8.405 5.637 16.309 11.827 23.716 18.474-2.077 1.202-4.299 2.27-6.685 3.163-3.818 1.429-6.285 4.994-6.285 9.085s2.467 7.656 6.286 9.086c20.021 7.485 28.805 27.094 32.258 38.116 1.275 4.066 4.998 6.8 9.264 6.8s7.988-2.733 9.264-6.801c.26-.83.555-1.715.878-2.634 16.804 30.842 25.984 65.798 25.984 102.057 0 68.414-32.372 129.399-82.592 168.474l-6.95-64.96c23.484-28.048 37.642-64.157 37.642-103.515 0-51.697-24.433-97.781-62.343-127.357 0 0-3.333-31.155-3.333-31.156-1.793-16.754-19.52-27.045-34.798-21.1-3.081 1.199-5.92 3-8.314 5.28-5.385 5.129-7.611 11.927-7.956 19.161-14.213-4.104-29.222-6.311-44.738-6.311-25.139 0-48.947 5.788-70.183 16.079l-28.648-3.784c-6.933-.915-13.323 3.981-14.239 10.916l-3.524 26.679c-27.786 29.018-44.89 68.341-44.89 111.593 0 41.162 15.492 78.766 40.938 107.316l-8.275 62.645c-51.336-39.003-84.563-100.663-84.563-169.961 0-56.997 22.196-110.582 62.499-150.886 40.299-40.302 93.885-62.497 150.883-62.497 31.158 0 61.186 6.562 89.249 19.502 3.764 1.738 8.217.091 9.951-3.67 1.734-3.762.092-8.217-3.67-9.951-30.047-13.856-62.188-20.881-95.53-20.881-61.004 0-118.357 23.756-161.493 66.892s-66.892 100.488-66.892 161.492 23.756 118.356 66.893 161.492c9.482 9.483 19.667 18.002 30.413 25.562l-1.72 13.02c-.542 4.106 2.347 7.875 6.453 8.418 4.11.545 7.875-2.348 8.418-6.453l21.684-164.148 23.531 3.108-28.907 218.83c-1.873 14.18-25.389 10.955-23.529-3.128.092-.698 2.641-19.994 2.641-19.994.542-4.106-2.347-7.875-6.453-8.418-4.105-.541-7.875 2.346-8.418 6.453l-2.644 20.014c-.9 6.813.907 13.569 5.089 19.023 13.893 18.121 45.152 11.206 48.185-11.985l6.331-47.929c25.37 9.527 52.507 14.522 80.418 14.522 28.328 0 55.866-5.131 81.562-14.938 0 0 5.097 47.637 5.105 47.713 2.464 23.033 33.691 30.758 47.873 13.174 4.314-5.349 6.288-12.058 5.557-18.891l-7.435-69.493c10.165-7.283 19.812-15.44 28.83-24.458 43.135-43.138 66.891-100.49 66.891-161.494zm-51.126-116.684c-5.007-10.349-13.135-22.06-26.054-29.941 12.921-7.883 21.047-19.592 26.054-29.941 5.007 10.35 13.134 22.06 26.053 29.941-12.92 7.883-21.046 19.592-26.053 29.941zm-30.774 116.684c0 30.235-9.215 58.354-24.975 81.711l-5.692-53.204-14.341-134.037c27.724 26.669 45.008 64.115 45.008 105.53zm-86.675-156.298c.143-2.974 1.542-5.802 3.852-7.691 6.427-5.198 16.366-1.019 17.232 7.071.005.047 19.212 179.564 19.212 179.564l-23.602 2.525-2.184-20.406c-.7-6.551-3.852-12.507-8.873-16.771l-8.075-6.861c-2.483-2.109-3.873-5.312-3.718-8.566.001-.001 6.156-128.864 6.156-128.865zm-59.808 9.814c15.327 0 30.105 2.381 44 6.769l-5.329 111.565c-.376 7.869 2.983 15.612 8.987 20.714 4.572 3.885 10.829 7.373 11.747 13.797l2.98 27.863 9.96 93.084c-21.357 12.186-46.046 19.174-72.345 19.174-25.022 0-48.591-6.318-69.216-17.425l12.355-93.532 4.616-34.939c.234-1.771 1.395-3.269 2.958-3.815 14.337-5.018 24.926-18.288 26.977-33.807l11.587-87.717c.444-3.359-.447-6.691-2.509-9.381s-5.048-4.416-8.408-4.859l-17.161-2.267c12.362-3.402 25.372-5.224 38.801-5.224zm-105.519 140.034-4.615 34.939-7.715 58.405c-17.985-24.326-28.635-54.388-28.635-86.894 0-30.998 9.682-59.776 26.176-83.475l-4.349 32.92c-2.05 15.52 4.73 31.084 17.272 39.651 1.368.934 2.101 2.682 1.866 4.454zm11.238 29.468 3.633-27.504c.983-7.44-2.188-14.646-8.276-18.805-7.915-5.406-12.179-15.338-10.863-25.301l11.284-85.424 14.008 1.851-9.427 71.366c-.542 4.106 2.347 7.875 6.454 8.418.333.044.664.065.991.065 3.706 0 6.928-2.746 7.426-6.519l9.427-71.366 14.847 1.961-9.427 71.366c-.542 4.106 2.347 7.875 6.454 8.418.333.044.664.065.991.065 3.706 0 6.928-2.746 7.426-6.519l9.427-71.367 14.008 1.85-11.284 85.424c-1.316 9.963-8.013 18.447-17.061 21.613-6.958 2.436-11.892 8.57-12.874 16.01l-3.633 27.503zm94.281 190.367c-27.662 0-54.105-5.306-78.382-14.93l7.082-53.612c21.518 10.637 45.717 16.641 71.3 16.641 26.686 0 51.871-6.524 74.072-18.034l5.82 54.391c-24.691 10.007-51.654 15.544-79.892 15.544zm122.865 51.531c-2.496 3.095-5.947 3.799-9.475 4.175-5.889.628-11.178-3.644-11.809-9.526l-23.484-219.479 23.603-2.525 23.482 219.479c.305 2.848-.518 5.646-2.317 7.876z"/><path fill="#ffffff" d="m94.684 418.776c-15.273-5.71-22.009-20.784-24.666-29.262-1.215-3.877-4.763-6.481-8.829-6.481s-7.614 2.604-8.829 6.481v.001c-2.656 8.477-9.393 23.55-24.663 29.26-3.644 1.361-5.998 4.761-5.998 8.661s2.354 7.3 5.995 8.66c15.273 5.711 22.009 20.784 24.666 29.263 1.215 3.877 4.763 6.481 8.829 6.481s7.614-2.604 8.829-6.482c2.656-8.478 9.392-23.552 24.663-29.261 3.644-1.361 5.998-4.761 5.998-8.661s-2.355-7.299-5.995-8.66zm-33.495 29.018c-3.833-7.124-9.512-14.706-17.817-20.357 8.306-5.65 13.984-13.232 17.817-20.357 3.833 7.124 9.512 14.706 17.817 20.357-8.305 5.65-13.983 13.232-17.817 20.357z"/></g></g></g></g></svg>