<svg id="Capa_1" enable-background="new 0 0 512 512" height="512" viewBox="0 0 512 512" width="512" xmlns="http://www.w3.org/2000/svg"><path fill="#ffffff" d="m478.492 179.553c9.252-14.866 16.766-32.648 17.569-51.887.654-15.667-5.141-31.156-15.901-42.495-10.62-11.191-24.888-17.446-40.175-17.611-.212-.002-.419-.003-.63-.003-13.46 0-26.195 4.662-36.4 13.225-41.896-32.325-93.87-50.07-146.954-50.07-34.649 0-69.112 7.565-100.403 21.918-1.151-13.03-6.669-25.489-15.709-35.016-10.62-11.192-24.888-17.445-40.174-17.61-.214-.003-.421-.004-.632-.004-15.05 0-29.205 5.814-39.917 16.411-10.862 10.745-16.845 25.079-16.845 40.358 0 25.255 11.854 48.196 24.672 65.621-15.039 19.052-27.047 40.131-35.724 62.731-1.482 3.862.447 8.194 4.307 9.677.884.338 1.79.499 2.683.499 3.01 0 5.85-1.829 6.994-4.807 7.657-19.944 18.085-38.626 31.044-55.651-.179 1.764-.294 3.54-.294 5.307v36.392c0 7.169 3.946 13.685 10.298 17.009 2.809 1.47 5.862 2.196 8.905 2.196 3.836 0 7.656-1.157 10.941-3.437l26.844-18.638c7.512-5.215 16.316-7.972 25.463-7.972h34.548c13.4 0 25.998-5.218 35.474-14.693l34.092-34.092c11.455-11.456 12.088-29.993 1.439-42.204l-16.601-19.035c-2.341-2.684-3.284-6.265-2.723-9.673 3.768-.19 7.541-.308 11.318-.308 49.354 0 97.677 16.363 136.784 46.18-6.616 9.449-10.191 20.667-10.191 32.456 0 10.379 2.014 20.361 5.262 29.737-2.209 16.293.176 32.825 6.915 47.831l14.572 32.442c7.804 17.373 25.153 28.6 44.2 28.6 9.665 0 19.014-2.851 27.034-8.242l.464-.312c.415 5.623.625 11.282.625 16.974 0 124.433-101.233 225.666-225.666 225.666s-225.666-101.235-225.666-225.668c0-17.464 2.001-34.857 5.948-51.696.944-4.028-1.555-8.057-5.582-9.001-4.027-.949-8.058 1.554-9.001 5.582-4.21 17.959-6.344 36.503-6.344 55.116 0 64.279 25.032 124.71 70.484 170.162 45.451 45.451 105.882 70.482 170.161 70.482s124.71-25.031 170.161-70.483c45.452-45.452 70.484-105.884 70.484-170.162 0-31.809-6.118-62.677-18.153-91.802zm-408.791-152.494c7.885-7.801 18.305-12.08 29.387-12.08.154 0 .309.001.464.003 11.198.12 21.664 4.716 29.47 12.942 7.986 8.416 12.288 19.919 11.802 31.561-1.393 33.374-28.217 63.415-39.686 74.78-1.129 1.119-2.965 1.121-4.088.007-11.951-11.843-39.75-43.103-39.75-77.503 0-11.248 4.404-21.799 12.401-29.71zm166.415 38.457 16.602 19.036c5.491 6.297 5.166 15.858-.743 21.766l-34.092 34.092c-6.646 6.647-15.482 10.307-24.881 10.307h-34.548c-12.214 0-23.973 3.682-34.005 10.647l-26.844 18.637c-1.891 1.316-3.678.629-4.36.273-.68-.356-2.261-1.433-2.261-3.736v-28.405c2.537 1.284 5.32 1.935 8.106 1.935 4.56 0 9.121-1.721 12.594-5.162 14.445-14.316 38.017-42.151 43.157-75.299 23.309-11.701 48.71-19.283 74.733-22.352-.158 6.564 2.07 13.132 6.542 18.261zm203.244 17.019c.154 0 .309.001.463.003 11.199.12 21.665 4.717 29.471 12.943 7.986 8.416 12.288 19.919 11.802 31.56-1.393 33.374-28.217 63.415-39.686 74.781-1.129 1.119-2.965 1.121-4.088.007-11.951-11.844-39.749-43.104-39.749-77.503 0-11.248 4.404-21.8 12.401-29.711 7.884-7.8 18.303-12.08 29.386-12.08zm32.859 159.727c-5.541 3.725-11.999 5.694-18.676 5.694-13.158 0-25.145-7.756-30.536-19.759l-14.572-32.442c-1.276-2.842-2.355-5.752-3.253-8.708 7.389 10.498 15.304 19.187 21.596 25.422 3.469 3.436 8.024 5.154 12.581 5.154 4.56 0 9.121-1.721 12.594-5.162 4.742-4.699 10.468-10.864 16.204-18.186 5.12 14.067 8.799 28.538 11.011 43.315z"/><path fill="#ffffff" d="m439.363 157.779c17.426 0 31.602-14.177 31.602-31.602s-14.177-31.602-31.602-31.602c-17.426 0-31.602 14.177-31.602 31.602s14.176 31.602 31.602 31.602zm0-48.226c9.166 0 16.623 7.457 16.623 16.623s-7.457 16.623-16.623 16.623-16.623-7.457-16.623-16.623 7.457-16.623 16.623-16.623z"/><path fill="#ffffff" d="m325.177 163.765c-10.62-11.192-24.887-17.447-40.174-17.612-.212-.002-.419-.003-.63-.003-15.05 0-29.205 5.814-39.917 16.411-8.1 8.013-13.482 18.022-15.698 28.929-17.202-.747-33.887 7.24-44.029 21.568l-25.165 35.548c-9.821 13.872-11.044 31.851-3.464 46.813-3.201 7.177-4.899 15.007-4.899 23.11 0 32.991 20.221 62.024 36.401 79.976l-1.629 44.273c-.388 10.558 4.518 20.52 13.124 26.648 5.416 3.857 11.785 5.788 18.158 5.788 6.25-.001 12.504-1.859 17.859-5.579l68.94-47.894c10.735-7.458 20.005-16.649 27.555-27.314l20.813-29.398c2.39-3.376 1.591-8.051-1.786-10.441-3.375-2.391-8.051-1.591-10.44 1.785l-20.813 29.4c-6.543 9.241-14.575 17.205-23.877 23.667l-68.94 47.894c-5.642 3.917-13.188 3.874-18.781-.109-4.488-3.196-7.047-8.391-6.844-13.897l1.22-32.479c1.878.64 3.839.979 5.805.979 4.559 0 9.121-1.721 12.593-5.163 15.805-15.664 42.553-47.508 44.108-84.795.653-15.668-5.143-31.157-15.903-42.496-10.62-11.192-24.888-17.446-40.175-17.611-15.242-.184-29.686 5.663-40.546 16.409-.506.5-.99 1.016-1.474 1.532-1.237-7.726.507-15.788 5.218-22.443l25.165-35.548c7.093-10.018 18.716-15.637 30.735-15.258 1.61 37.08 28.111 68.758 44.106 84.608 3.469 3.437 8.024 5.155 12.581 5.155 4.561 0 9.122-1.72 12.595-5.162 6.521-6.463 14.902-15.686 22.611-26.903l38.862 27.511c4.904 3.472 8.162 8.645 9.176 14.569 1.013 5.922-.341 11.886-3.813 16.789l-5.464 7.718c-2.39 3.376-1.591 8.05 1.785 10.441 1.315.93 2.825 1.378 4.321 1.378 2.348 0 4.66-1.101 6.119-3.163l5.464-7.718c5.784-8.17 8.04-18.104 6.352-27.971-1.687-9.866-7.116-18.485-15.286-24.268l-39.622-28.049c7.358-13.382 12.918-28.729 13.603-45.13.656-15.667-5.14-31.156-15.9-42.495zm-117.209 112.973c.154 0 .309.001.462.003 11.199.12 21.665 4.717 29.471 12.943 7.986 8.416 12.288 19.919 11.803 31.561-1.393 33.375-28.218 63.414-39.688 74.781-1.127 1.119-2.961 1.12-4.086.005-11.952-11.842-39.75-43.099-39.75-77.502 0-11.247 4.404-21.798 12.4-29.71 7.886-7.802 18.306-12.081 29.388-12.081zm78.459 3.678c-1.127 1.12-2.963 1.122-4.088.007-11.951-11.844-39.749-43.104-39.749-77.503 0-11.248 4.404-21.8 12.401-29.711 7.885-7.801 18.305-12.08 29.387-12.08.154 0 .309.001.463.003 11.199.12 21.665 4.717 29.471 12.943 7.986 8.416 12.288 19.919 11.802 31.56-1.393 33.375-28.218 63.415-39.687 74.781z"/><path fill="#ffffff" d="m308.493 197.281c-4.137 0-7.49 3.353-7.49 7.49 0 9.166-7.457 16.623-16.623 16.623s-16.623-7.457-16.623-16.623 7.457-16.623 16.623-16.623c1.112 0 2.222.11 3.299.327 4.06.809 8.004-1.814 8.819-5.868.814-4.056-1.813-8.003-5.868-8.819-2.047-.411-4.15-.619-6.25-.619-17.426 0-31.602 14.177-31.602 31.602s14.177 31.602 31.602 31.602c17.426 0 31.602-14.177 31.602-31.602.001-4.138-3.352-7.49-7.489-7.49z"/><path fill="#ffffff" d="m207.97 351.982c17.426 0 31.602-14.177 31.602-31.602s-14.177-31.602-31.602-31.602-31.602 14.177-31.602 31.602 14.176 31.602 31.602 31.602zm0-48.226c9.166 0 16.623 7.457 16.623 16.623s-7.457 16.623-16.623 16.623-16.623-7.457-16.623-16.623c0-9.165 7.457-16.623 16.623-16.623z"/><path fill="#ffffff" d="m130.693 58.62c0-17.426-14.177-31.602-31.602-31.602s-31.603 14.177-31.603 31.602 14.177 31.601 31.602 31.601 31.603-14.176 31.603-31.601zm-48.225 0c0-9.166 7.457-16.623 16.623-16.623s16.623 7.457 16.623 16.623-7.457 16.622-16.623 16.622-16.623-7.456-16.623-16.622z"/></svg>