<?xml version="1.0" encoding="iso-8859-1"?>
<!-- Generator: Adobe Illustrator 19.0.0, SVG Export Plug-In . SVG Version: 6.00 Build 0)  -->
<svg version="1.1" id="Capa_1" xmlns="http://www.w3.org/2000/svg" xmlns:xlink="http://www.w3.org/1999/xlink" x="0px" y="0px"
	 viewBox="0 0 512 512" style="enable-background:new 0 0 512 512;" xml:space="preserve">
<g>
	<g>
		<path fill="#ffffff" d="M503.279,192.846C475.881,95.185,386.048,22.137,277.883,22.137c-16.615,0-33.202,1.75-49.301,5.202
			c-4.073,0.873-6.667,4.883-5.794,8.956c0.872,4.074,4.882,6.671,8.956,5.794c8.827-1.892,17.816-3.221,26.873-4.011
			c-23.429,25.758-35.283,54.576-35.283,85.893c0,25.439,8.013,46.167,13.701,57.676c-18.727,1.292-36.84-5.148-50.547-17.425
			C148.8,130.459,159.529,69.739,204.292,50.16c3.818-1.668,5.558-6.116,3.888-9.933c-1.667-3.816-6.116-5.555-9.932-3.887
			c-30.24,13.225-49.779,43.39-49.779,76.848c0.002,24.006,9.929,46.121,27.956,62.27c22.49,20.145,53.468,26.381,81.198,17.498
			c32.318-10.354,68.419,5.263,81.828,38.321c1.19,2.932,4.012,4.71,6.993,4.71c5.31,0,9.007-5.399,6.987-10.38
			c-7.984-19.685-22.916-34.922-41.317-43.403c3.492-8.688,11.021-25.279,23.18-41.657c22.446-30.238,52.046-49.11,90.187-45.936
			c29.584,26.942,51.974,62.019,63.278,102.31c1.126,4.016,5.295,6.349,9.3,5.224C502.066,201.021,504.405,196.856,503.279,192.846z
			 M322.916,131.912c-13.337,18.058-21.372,35.958-25.059,45.275c-14.746-3.692-29.809-3.288-45.326,1.55
			c-4.658-8.526-14.108-28.996-14.108-54.766c-0.002-31.839,14.243-60.999,42.333-86.718c46.56,0.613,90.487,16.095,126.431,42.403
			C374.971,82.74,346.005,100.647,322.916,131.912z"/>
	</g>
</g>
<g>
	<g>
		<path fill="#ffffff" d="M509.669,223.333c-0.579-4.126-4.403-7.002-8.519-6.419c-4.126,0.579-7,4.394-6.419,8.519
			c1.044,7.42,1.706,14.967,1.987,22.526c-46.223,33.181-97.669,35.85-137.937,17.972c0.365-3.04,0.516-5.371,0.576-7.837
			c0.101-4.227-3.295-7.723-7.545-7.723c-4.082,0-7.438,3.26-7.537,7.363c-0.828,35.496-29.658,63.815-64.308,64.861
			c-18.965,0.58-36.45,8.45-49.158,21.466c-5.577-8.985-16.289-23.447-34.322-37.938c-41.371-33.245-97.702-46.793-150.127-46.793
			c-15.047,0-22.79,17.679-11.696,27.851l27.451,25.164c3.072,2.817,7.844,2.608,10.657-0.463c2.815-3.071,2.608-7.843-0.463-10.657
			c-28.236-25.948-27.804-25.34-27.804-25.645c0-1.074,2.04-1.237,1.887-1.164c71.846,0.668,115.742,23.688,139.914,42.881
			c21.21,16.842,31.4,33.783,34.533,39.671c-1.092,1.812-2.118,3.678-3.055,5.605c-15.76,35.226-25.596,44.958-25.611,66.27
			c-17.795,1.32-35.66,0.898-53.859-1.951c-4.119-0.645-7.975,2.169-8.619,6.286s2.17,7.975,6.286,8.619
			c19.565,3.061,38.854,3.51,58.056,2.036c5.732,22.626,24.235,40.099,48.168,43.761c6.321,0.966,12.766,1.684,19.161,2.128
			c0.179,0.013,0.356,0.019,0.532,0.019c3.926,0,7.239-3.04,7.517-7.019c0.29-4.156-2.844-7.759-7-8.049
			c-5.982-0.417-12.014-1.087-17.927-1.992c-29.757-4.552-45.633-36.695-32.71-63.26l19.574-40.249
			c8.556-17.593,25.818-30.472,50.039-31.534c5.717-0.241,11.283-1.102,16.647-2.483c6.869,46.971,47.682,86.508,88.063,111.481
			c-28.145,16.056-60.226,26.056-94.522,28.156c-4.159,0.255-7.323,3.833-7.068,7.989c0.245,4.002,3.567,7.082,7.522,7.082
			c0.155,0,0.312-0.005,0.469-0.014C429.059,481.485,528.69,358.616,509.669,223.333z M400.466,437.674
			c-78.461-45.945-86.977-96.55-87.889-107.794c20.243-9.626,35.98-27.369,42.918-48.921c41.902,17.39,93.959,15.338,141.148-14.735
			C493.425,337.222,456.156,399.911,400.466,437.674z"/>
	</g>
</g>
<g>
	<g>
		<path fill="#ffffff" d="M120.728,345.608l-26.179-23.996c-3.072-2.816-7.844-2.608-10.657,0.463c-2.815,3.071-2.608,7.843,0.463,10.658
			l8.142,7.463c-24.925-1.288-54.206,1.76-78.807,5.495C5.758,346.895,0,353.601,0,361.637c0,8.555,6.308,12.536,6.931,13.325
			c18.538,16.809,49.565,44.943,98.642,59.883c0.733,0.223,1.472,0.329,2.201,0.329c8.609,0,10.471-12.24,2.194-14.761
			c-40.532-12.339-67.372-33.478-94.564-58.132c-0.619-0.562-0.286-1.55,0.55-1.677c24.572-3.73,46.237-5.622,64.393-5.622
			c23.376,0,32.546,3.215,32.549,3.215c3.384,1.318,7.223,0.036,9.139-3.046C123.952,352.07,123.403,348.06,120.728,345.608z"/>
	</g>
</g>
<g>
</g>
<g>
</g>
<g>
</g>
<g>
</g>
<g>
</g>
<g>
</g>
<g>
</g>
<g>
</g>
<g>
</g>
<g>
</g>
<g>
</g>
<g>
</g>
<g>
</g>
<g>
</g>
<g>
</g>
</svg>
