<?xml version="1.0" encoding="iso-8859-1"?>
<!-- Generator: Adobe Illustrator 19.0.0, SVG Export Plug-In . SVG Version: 6.00 Build 0)  -->
<svg version="1.1" id="Capa_1" xmlns="http://www.w3.org/2000/svg" xmlns:xlink="http://www.w3.org/1999/xlink" x="0px" y="0px"
	 viewBox="0 0 511.953 511.953" style="enable-background:new 0 0 511.953 511.953;" xml:space="preserve">
<g>
	<g>
		<g>
			<path fill="#ffffff" d="M398.885,226.862c-3.377-3.242-8.736-3.158-12.01,0.189c-3.274,3.347-3.24,8.706,0.076,12.011l12.462,12.196
				c2.173,2.166,5.341,2.998,8.298,2.181s5.247-3.159,5.999-6.133c0.752-2.974-0.15-6.123-2.364-8.247l0,0L398.885,226.862z"/>
			<path fill="#ffffff" d="M336.577,287.841c-3.377-3.242-8.736-3.158-12.01,0.189c-3.274,3.347-3.24,8.706,0.076,12.011l12.463,12.196
				c2.173,2.166,5.341,2.998,8.298,2.181c2.957-0.817,5.247-3.159,5.999-6.133s-0.151-6.123-2.364-8.247L336.577,287.841z"/>
			<path fill="#ffffff" d="M342.806,232.962c-3.377-3.242-8.736-3.158-12.01,0.189c-3.274,3.347-3.24,8.706,0.076,12.011l12.462,12.196
				c2.173,2.166,5.341,2.998,8.298,2.181s5.247-3.159,5.999-6.133c0.752-2.974-0.15-6.123-2.364-8.247L342.806,232.962z"/>
			<path fill="#ffffff" d="M286.727,336.625c-3.377-3.244-8.738-3.161-12.012,0.187c-3.275,3.348-3.239,8.709,0.079,12.013l12.463,12.196
				c2.173,2.166,5.341,2.998,8.298,2.181c2.957-0.817,5.247-3.159,5.999-6.133c0.752-2.974-0.151-6.123-2.364-8.247L286.727,336.625
				z"/>
			<path fill="#ffffff" d="M224.423,397.608c-2.176-2.144-5.332-2.962-8.275-2.144s-5.225,3.147-5.982,6.107c-0.757,2.96,0.126,6.098,2.315,8.229
				l12.459,12.196c2.176,2.144,5.332,2.962,8.275,2.144s5.225-3.147,5.982-6.107s-0.126-6.098-2.315-8.229L224.423,397.608z"/>
			<path fill="#ffffff" d="M230.648,342.721c-3.377-3.242-8.736-3.158-12.01,0.189c-3.274,3.347-3.24,8.706,0.076,12.011l12.463,12.196
				c2.173,2.166,5.341,2.998,8.298,2.181c2.957-0.817,5.247-3.159,5.999-6.133s-0.151-6.123-2.364-8.247L230.648,342.721z"/>
			<path fill="#ffffff" d="M500.144,155.212c-4.353-4.251-9.619-7.453-15.396-9.363c4.978-8.086,7.64-17.384,7.696-26.879
				c0.083-12.74-5.01-24.969-14.112-33.883c-7.864-7.671-18.114-12.423-29.05-13.467c-1.479-11.181-6.677-21.54-14.758-29.408
				c-14.286-13.539-34.771-18.306-53.567-12.467c-2.311-4.492-5.331-8.583-8.942-12.117c-20.675-18.95-52.649-18.106-72.296,1.908
				l-31.154,30.488l-0.001,0.002L7.981,305.037c-3.541,3.421-6.042,7.773-7.217,12.554c-0.08,0.309-0.089,0.622-0.157,0.933
				c-0.013,0.091-0.035,0.177-0.045,0.268c-1.155,5.209-0.517,10.656,1.811,15.457c7.121,14.4,26.654,42.367,79.258,93.846
				c52.583,51.463,81.142,70.567,95.842,77.533c3.323,1.565,6.952,2.375,10.625,2.371c3.063,0.009,6.098-0.571,8.942-1.708
				c3.685-1.278,7.036-3.368,9.804-6.117l263.407-257.776l28.339-27.729c8.433-8.177,13.245-19.387,13.363-31.133
				C512.018,172.885,507.757,162.663,500.144,155.212z M303.998,39.229l46.146,75.529c3.397,5.508,6.445,11.224,9.129,17.112
				c0.958,2.139,1.785,4.313,2.644,6.48c-21.445-3.95-43.407-4.21-64.94-0.767c-43.663,7.286-84.034,27.809-115.65,58.792
				c-47.986,45.336-70.352,111.527-59.7,176.677c-8.97-3.66-17.631-8.035-25.9-13.082l-75.131-43.4L303.998,39.229z
				 M379.336,135.917c-1.312-3.697-2.861-7.391-4.509-11.072c-2.979-6.543-6.365-12.893-10.138-19.012L350.657,82.87
				c11.448-4.266,24.327-1.629,33.178,6.792c5.737,5.619,8.97,13.311,8.97,21.341s-3.231,15.722-8.966,21.343l0-0.001
				C382.452,133.674,380.945,134.869,379.336,135.917z M93.564,415.895C68.27,392.437,45.28,366.61,24.911,338.767l62.111,35.878
				c11.549,7.072,23.809,12.91,36.579,17.417c0.905,0.318,1.857,0.481,2.817,0.483l0.093-0.015
				c3.943,12.877,9.427,25.231,16.332,36.794l34.074,56.611C162.89,477.533,137.18,458.579,93.564,415.895z M455.493,232.962
				l-0.001,0.002L196.896,486.031l-39.428-65.506c-7.483-12.475-13.123-25.966-16.746-40.054
				c-15.321-59.325,4.813-125.192,52.538-171.895c29.086-28.52,66.23-47.419,106.408-54.138c22.5-3.709,45.51-2.941,67.712,2.263
				c15.075,3.454,29.555,9.124,42.967,16.825l66.638,38.406L455.493,232.962z M408.598,121.815
				c5.933,0.671,11.472,3.306,15.737,7.485c9.421,9.004,10.396,23.716,2.244,33.884l-7.715-4.446
				c-8.213-4.702-16.804-8.712-25.682-11.989c0.866-0.735,1.775-1.402,2.595-2.202v0
				C402.124,138.341,406.571,130.456,408.598,121.815z M489.306,199.335l-47.763-27.527c11.901-17.06,9.668-40.234-5.271-54.708
				c-7.245-7.104-16.733-11.471-26.842-12.355c-1.379-10.363-6.187-19.966-13.658-27.279c-14.377-14.037-35.906-17.786-54.182-9.435
				L316.84,27.525c13.133-9.588,31.195-8.628,43.237,2.299c3.742,3.634,6.458,8.192,7.875,13.212
				c0.689,2.414,2.406,4.403,4.693,5.436c2.288,1.034,4.914,1.008,7.182-0.07c14.111-7.112,31.154-4.717,42.758,6.008
				c6.776,6.637,10.438,15.826,10.083,25.304c-0.067,2.388,0.871,4.695,2.585,6.36c1.714,1.665,4.047,2.535,6.432,2.399
				c9.117-0.721,18.109,2.485,24.713,8.812c5.808,5.712,9.048,13.537,8.979,21.683c-0.133,9.521-4.068,18.593-10.929,25.196
				c-0.456,0.488-0.949,0.941-1.475,1.354c-3.154,2.253-4.393,6.349-3.017,9.972s5.021,5.865,8.875,5.457
				c7.098-0.837,14.2,1.532,19.375,6.462c4.321,4.249,6.731,10.07,6.679,16.129C494.825,189.278,492.863,194.833,489.306,199.335z"
				/>
		</g>
	</g>
</g>
<g>
</g>
<g>
</g>
<g>
</g>
<g>
</g>
<g>
</g>
<g>
</g>
<g>
</g>
<g>
</g>
<g>
</g>
<g>
</g>
<g>
</g>
<g>
</g>
<g>
</g>
<g>
</g>
<g>
</g>
</svg>
