<?xml version="1.0" encoding="iso-8859-1"?>
<!-- Generator: Adobe Illustrator 19.0.0, SVG Export Plug-In . SVG Version: 6.00 Build 0)  -->
<svg version="1.1" id="Layer_1" xmlns="http://www.w3.org/2000/svg" xmlns:xlink="http://www.w3.org/1999/xlink" x="0px" y="0px"
	 viewBox="0 0 512.001 512.001" style="enable-background:new 0 0 512.001 512.001;" xml:space="preserve">
<g>
	<g>
		<path fill="#FFFFFF" d="M469.617,91.023c-7.572-10.747-18.832-17.894-31.707-20.126l-80.95-14.032v-7.77C356.96,22.024,334.936,0,307.866,0
			H204.133c-27.07,0-49.094,22.024-49.094,49.095v4.429L74.09,67.557c-12.875,2.232-24.136,9.379-31.707,20.126
			s-10.512,23.756-8.28,36.632l8.548,49.311c0.641,3.698,3.031,7.807,8.789,6.192c4.042-1.133,6.909-4.651,6.191-8.788
			l-8.548-49.312c-1.539-8.874,0.496-17.851,5.729-25.279c4.198-5.959,10.03-10.31,16.756-12.594l71.489,409.451
			c-16.588,0.518-31.516-11.262-34.433-28.081L67.904,230.3c-0.717-4.136-4.642-6.907-8.789-6.192
			c-4.136,0.718-6.909,4.651-6.191,8.788l40.72,234.916c10.993,49.793,53.935,40.478,56.758,39.988c0,0,39.852-6.924,40.108-6.996
			c4.329,1.253,8.897,1.938,13.625,1.938h103.732c1.457,0,2.894-0.076,4.319-0.201c0.213,0.056,49.413,8.599,49.413,8.599
			c2.81,0.487,47.116,9,56.758-39.988l59.541-343.496C480.129,114.78,477.189,101.77,469.617,91.023z M356.96,111.286l6.608-37.845
			l23.488,4.072l-26.11,149.542c-0.905-2.133-2.201-4.136-3.985-5.884V111.286z M322.144,18.369
			c11.57,5.398,19.612,17.138,19.612,30.726v165.428c-0.497-0.015-8.802,1.306-19.612,3.068V18.369z M283.116,15.204h23.824v204.881
			c-8.472,1.397-17.034,2.817-23.824,3.945V15.204z M244.087,15.204h23.825v210.181c-3.932-2.077-14.237-6.468-23.825,1.024V15.204z
			 M205.06,15.204h23.824v208.83c-6.92-1.15-15.439-2.563-23.824-3.946V15.204z M170.244,49.095
			c0-13.588,8.041-25.326,19.612-30.726v199.224c-10.841-1.768-19.121-3.086-19.612-3.071V49.095z M163.797,235.768
			c0.812-6.191,6.477-6.272,8.375-5.95l38.266,6.475l-42.656,7.218c-0.007-0.003-0.012-0.007-0.019-0.011
			C164.897,242.081,163.383,238.92,163.797,235.768z M148.433,70.1l6.608,37.845V221.17c-1.477,1.619-2.651,3.249-3.579,4.87
			L124.945,74.171L148.433,70.1z M158.096,491.035L86.477,80.84l23.487-4.072l45.076,258.174v118.705
			c0,13.854,5.777,26.377,15.038,35.311L158.096,491.035z M189.856,484.372c-11.571-5.398-19.612-17.137-19.612-30.725V288.205
			c0.093,0.003,9.035-1.43,19.612-3.131V484.372z M228.884,487.538H205.06V282.626c10.423-1.68,19.137-3.086,19.137-3.086
			l-2.003,7.653c-2.192,8.381,0.673,16.913,6.691,22.361V487.538z M228.418,263.405l-56.246,9.518
			c-1.898,0.322-7.057,1.186-8.375-5.95c-0.729-3.939,2.001-7.705,5.951-8.374l62.705-10.61L228.418,263.405z M242.091,299.906
			c-3.876-1.014-6.202-4.991-5.189-8.866l12.479-47.689c0.835-3.193,3.917-6.341,8.866-5.189c6.465,1.505,5.676,7.005,5.189,8.866
			l-12.479,47.689C249.243,301.034,242.688,300.062,242.091,299.906z M267.912,487.538h-23.825V315.136
			c4.099-0.003,9.288-0.717,12.37-3.629c3.771,2.962,7.988,3.821,11.456,3.896V487.538z M270.828,299.907
			c-1.841,0.481-3.75,0.197-5.359-0.701c0.063-0.214,6.357-24.183,6.357-24.183l4.191,16.019
			C277.032,294.915,274.704,298.892,270.828,299.907z M278.432,240.207l61.396-10.389c6.043-1.084,8.054,4.054,8.375,5.951
			c0.668,3.949-2.002,7.706-5.951,8.374l-60.128,10.174L278.432,240.207z M306.94,487.537h-23.824V310.342
			c6.641-5.388,9.913-14.352,7.611-23.149l-1.959-7.489c0,0,8.214,1.325,18.173,2.928V487.537z M301.563,266.449l42.643-7.216
			c2.85,1.39,4.351,4.522,3.998,7.741c-0.644,5.85-6.476,6.272-8.375,5.95L301.563,266.449z M353.904,494.376l-15.129-2.622
			c11.086-9.009,18.185-22.742,18.185-38.107v-43.144c0-4.198-3.404-7.602-7.602-7.602c-4.199,0-7.602,3.404-7.602,7.602v43.144
			c0,13.588-8.042,25.326-19.612,30.726V285.077c10.538,1.694,19.517,3.131,19.612,3.128v93.41c0,4.198,3.403,7.602,7.602,7.602
			c4.199,0,7.602-3.404,7.602-7.602V338.28l45.076-258.173l23.487,4.072L353.904,494.376z M462.917,125.058l-59.541,343.497
			c-1.539,8.874-6.476,16.643-13.902,21.876c-6.102,4.3-13.252,6.435-20.53,6.208l71.489-409.453
			c6.725,2.284,12.557,6.635,16.756,12.594C462.422,107.207,464.456,116.183,462.917,125.058z"/>
	</g>
</g>
<g>
	<g>
		<path fill="#FFFFFF" d="M63.592,205.425l-1.223-7.06c-0.716-4.136-4.649-6.91-8.788-6.192c-4.137,0.717-6.909,4.651-6.192,8.788l1.223,7.06
			c0.641,3.698,4.164,7.367,8.788,6.192C61.469,213.179,64.308,209.561,63.592,205.425z"/>
	</g>
</g>
<g>
</g>
<g>
</g>
<g>
</g>
<g>
</g>
<g>
</g>
<g>
</g>
<g>
</g>
<g>
</g>
<g>
</g>
<g>
</g>
<g>
</g>
<g>
</g>
<g>
</g>
<g>
</g>
<g>
</g>
</svg>
