<svg id="svg" version="1.1" xmlns="http://www.w3.org/2000/svg" xmlns:xlink="http://www.w3.org/1999/xlink" width="400" height="400" viewBox="0, 0, 400,400"><g id="svgg"><path id="path0" d="M194.400 98.400 C 194.400 98.653,191.475 98.800,186.424 98.800 C 181.537 98.800,178.351 98.955,178.200 99.200 C 178.054 99.437,175.604 99.600,172.200 99.600 C 168.796 99.600,166.346 99.763,166.200 100.000 C 166.058 100.229,163.996 100.400,161.376 100.400 C 158.592 100.400,156.800 100.557,156.800 100.800 C 156.800 101.043,155.008 101.200,152.224 101.200 C 149.604 101.200,147.542 101.371,147.400 101.600 C 147.263 101.821,145.463 102.000,143.376 102.000 C 141.125 102.000,139.600 102.162,139.600 102.400 C 139.600 102.633,138.267 102.800,136.400 102.800 C 134.533 102.800,133.200 102.967,133.200 103.200 C 133.200 103.433,131.867 103.600,130.000 103.600 C 128.133 103.600,126.800 103.767,126.800 104.000 C 126.800 104.233,125.475 104.400,123.624 104.400 C 121.877 104.400,120.336 104.580,120.200 104.800 C 120.064 105.020,118.883 105.200,117.576 105.200 C 116.259 105.200,115.200 105.378,115.200 105.600 C 115.200 105.822,114.133 106.000,112.800 106.000 C 111.467 106.000,110.400 106.178,110.400 106.400 C 110.400 106.620,109.410 106.800,108.200 106.800 C 106.990 106.800,106.000 106.980,106.000 107.200 C 106.000 107.420,105.100 107.600,104.000 107.600 C 102.900 107.600,102.000 107.754,102.000 107.942 C 102.000 108.131,100.537 108.407,98.748 108.556 C 96.960 108.705,95.171 109.001,94.774 109.214 C 94.377 109.426,93.511 109.600,92.850 109.600 C 92.188 109.600,91.536 109.780,91.400 110.000 C 91.264 110.220,90.443 110.400,89.576 110.400 C 88.709 110.400,88.000 110.580,88.000 110.800 C 88.000 111.020,87.280 111.200,86.400 111.200 C 85.520 111.200,84.800 111.380,84.800 111.600 C 84.800 111.820,84.181 112.000,83.424 112.000 C 82.667 112.000,81.936 112.180,81.800 112.400 C 81.664 112.620,81.023 112.800,80.376 112.800 C 79.729 112.800,79.200 112.980,79.200 113.200 C 79.200 113.420,78.570 113.600,77.800 113.600 C 77.030 113.600,76.400 113.780,76.400 114.000 C 76.400 114.220,75.860 114.400,75.200 114.400 C 74.540 114.400,74.000 114.580,74.000 114.800 C 74.000 115.020,73.460 115.200,72.800 115.200 C 72.140 115.200,71.600 115.380,71.600 115.600 C 71.600 115.820,71.060 116.000,70.400 116.000 C 69.740 116.000,69.200 116.180,69.200 116.400 C 69.200 116.620,68.660 116.800,68.000 116.800 C 67.340 116.800,66.800 116.980,66.800 117.200 C 66.800 117.420,66.260 117.600,65.600 117.600 C 64.940 117.600,64.400 117.780,64.400 118.000 C 64.400 118.220,63.950 118.400,63.400 118.400 C 62.850 118.400,62.400 118.580,62.400 118.800 C 62.400 119.020,61.950 119.200,61.400 119.200 C 60.850 119.200,60.400 119.380,60.400 119.600 C 60.400 119.820,60.051 120.000,59.624 120.000 C 59.197 120.000,58.736 120.180,58.600 120.400 C 58.464 120.620,58.003 120.800,57.576 120.800 C 57.149 120.800,56.800 120.980,56.800 121.200 C 56.800 121.420,56.451 121.600,56.024 121.600 C 55.597 121.600,55.136 121.780,55.000 122.000 C 54.864 122.220,54.313 122.400,53.776 122.400 C 53.239 122.400,52.800 122.580,52.800 122.800 C 52.800 123.020,52.440 123.200,52.000 123.200 C 51.560 123.200,51.200 123.380,51.200 123.600 C 51.200 123.820,50.840 124.000,50.400 124.000 C 49.960 124.000,49.600 124.180,49.600 124.400 C 49.600 124.620,49.328 124.800,48.995 124.800 C 48.254 124.800,42.393 127.576,41.698 128.256 C 41.421 128.526,40.836 128.862,40.398 129.001 C 39.959 129.140,39.600 129.422,39.600 129.627 C 39.600 129.832,39.240 130.000,38.800 130.000 C 38.360 130.000,38.000 130.180,38.000 130.400 C 38.000 130.620,37.764 130.800,37.475 130.800 C 37.187 130.800,36.564 131.160,36.092 131.600 C 35.620 132.040,34.956 132.400,34.617 132.400 C 34.278 132.400,34.000 132.550,34.000 132.732 C 34.000 132.915,33.505 133.319,32.900 133.630 C 32.295 133.940,31.509 134.511,31.153 134.897 C 30.797 135.284,30.252 135.600,29.941 135.600 C 29.631 135.600,29.117 135.960,28.800 136.400 C 28.483 136.840,27.993 137.200,27.712 137.200 C 27.430 137.200,27.200 137.380,27.200 137.600 C 27.200 137.820,27.028 138.000,26.818 138.000 C 26.608 138.000,26.008 138.405,25.484 138.900 C 24.960 139.395,23.862 140.340,23.046 141.000 C 22.229 141.660,21.010 142.695,20.338 143.300 C 19.666 143.905,18.950 144.400,18.749 144.400 C 18.302 144.400,14.000 148.793,14.000 149.249 C 14.000 149.427,13.370 150.203,12.600 150.973 C 11.830 151.743,11.200 152.568,11.200 152.805 C 11.200 153.042,10.781 153.655,10.270 154.166 C 9.758 154.678,9.107 155.660,8.821 156.348 C 8.536 157.037,8.178 157.600,8.026 157.600 C 7.874 157.600,7.502 158.230,7.200 159.000 C 6.898 159.770,6.504 160.400,6.325 160.400 C 6.146 160.400,6.000 160.760,6.000 161.200 C 6.000 161.640,5.820 162.000,5.600 162.000 C 5.380 162.000,5.200 162.360,5.200 162.800 C 5.200 163.240,5.020 163.600,4.800 163.600 C 4.580 163.600,4.400 163.960,4.400 164.400 C 4.400 164.840,4.220 165.200,4.000 165.200 C 3.780 165.200,3.600 165.819,3.600 166.576 C 3.600 167.333,3.420 168.064,3.200 168.200 C 2.980 168.336,2.800 169.517,2.800 170.824 C 2.800 172.141,2.622 173.200,2.400 173.200 C 2.180 173.200,2.000 173.729,2.000 174.376 C 2.000 175.023,2.180 175.664,2.400 175.800 C 2.620 175.936,2.800 176.836,2.800 177.800 C 2.800 178.764,2.980 179.664,3.200 179.800 C 3.420 179.936,3.600 180.397,3.600 180.824 C 3.600 181.251,3.780 181.600,4.000 181.600 C 4.220 181.600,4.400 181.873,4.400 182.207 C 4.400 182.879,9.344 188.000,9.993 188.000 C 10.217 188.000,10.400 188.144,10.400 188.320 C 10.400 188.496,11.206 189.150,12.191 189.773 C 14.231 191.062,14.256 190.935,11.451 193.587 C 10.294 194.681,9.090 196.072,8.774 196.677 C 8.458 197.283,7.525 198.480,6.700 199.338 C 5.875 200.195,5.200 201.145,5.200 201.448 C 5.200 201.752,5.020 202.000,4.800 202.000 C 4.580 202.000,4.400 202.278,4.400 202.617 C 4.400 202.956,4.040 203.620,3.600 204.092 C 3.160 204.564,2.800 205.266,2.800 205.652 C 2.800 206.037,2.620 206.464,2.400 206.600 C 2.180 206.736,2.000 207.197,2.000 207.624 C 2.000 208.051,1.820 208.400,1.600 208.400 C 1.380 208.400,1.200 208.835,1.200 209.367 C 1.200 209.898,0.975 210.408,0.700 210.500 C -0.024 210.741,-0.024 228.859,0.700 229.100 C 0.975 229.192,1.200 229.505,1.200 229.796 C 1.200 230.437,2.880 233.747,3.300 233.933 C 3.465 234.007,3.600 234.412,3.600 234.833 C 3.600 235.255,3.780 235.600,4.000 235.600 C 4.220 235.600,4.400 235.888,4.400 236.240 C 4.400 236.591,4.940 237.383,5.600 238.000 C 6.260 238.617,6.800 239.227,6.800 239.357 C 6.800 239.977,14.537 248.000,15.135 248.000 C 15.338 248.000,16.245 248.720,17.152 249.600 C 18.059 250.480,19.031 251.200,19.312 251.200 C 19.593 251.200,20.083 251.560,20.400 252.000 C 20.717 252.440,21.162 252.800,21.388 252.800 C 21.615 252.801,22.323 253.251,22.962 253.800 C 23.601 254.350,24.264 254.800,24.434 254.800 C 24.604 254.800,24.981 255.031,25.271 255.314 C 26.040 256.062,29.697 258.250,30.722 258.575 C 31.205 258.729,31.600 259.022,31.600 259.227 C 31.600 259.432,31.960 259.600,32.400 259.600 C 32.840 259.600,33.200 259.780,33.200 260.000 C 33.200 260.220,33.560 260.400,34.000 260.400 C 34.440 260.400,34.800 260.580,34.800 260.800 C 34.800 261.020,35.160 261.200,35.600 261.200 C 36.040 261.200,36.400 261.380,36.400 261.600 C 36.400 261.820,36.760 262.000,37.200 262.000 C 37.640 262.000,38.000 262.180,38.000 262.400 C 38.000 262.620,38.360 262.800,38.800 262.800 C 39.240 262.800,39.600 262.947,39.600 263.126 C 39.600 263.535,42.681 265.200,43.438 265.200 C 43.747 265.200,44.000 265.380,44.000 265.600 C 44.000 265.820,44.360 266.000,44.800 266.000 C 45.240 266.000,45.600 266.180,45.600 266.400 C 45.600 266.620,45.960 266.800,46.400 266.800 C 46.840 266.800,47.200 266.980,47.200 267.200 C 47.200 267.420,47.560 267.600,48.000 267.600 C 48.440 267.600,48.800 267.780,48.800 268.000 C 48.800 268.220,49.149 268.400,49.576 268.400 C 50.003 268.400,50.464 268.580,50.600 268.800 C 50.736 269.020,51.287 269.200,51.824 269.200 C 52.361 269.200,52.800 269.380,52.800 269.600 C 52.800 269.820,53.149 270.000,53.576 270.000 C 54.003 270.000,54.464 270.180,54.600 270.400 C 54.736 270.620,55.287 270.800,55.824 270.800 C 56.361 270.800,56.800 270.980,56.800 271.200 C 56.800 271.420,57.155 271.600,57.588 271.600 C 58.021 271.600,59.017 271.960,59.800 272.400 C 60.583 272.840,61.455 273.200,61.737 273.200 C 62.019 273.200,62.962 273.544,63.832 273.964 C 64.702 274.385,66.086 274.855,66.907 275.009 C 67.728 275.163,68.400 275.449,68.400 275.645 C 68.400 275.840,68.940 276.000,69.600 276.000 C 70.260 276.000,70.800 276.180,70.800 276.400 C 70.800 276.620,71.340 276.800,72.000 276.800 C 72.660 276.800,73.200 276.980,73.200 277.200 C 73.200 277.420,73.740 277.600,74.400 277.600 C 75.060 277.600,75.600 277.780,75.600 278.000 C 75.600 278.220,76.140 278.400,76.800 278.400 C 77.460 278.400,78.000 278.580,78.000 278.800 C 78.000 279.020,78.630 279.200,79.400 279.200 C 80.170 279.200,80.800 279.380,80.800 279.600 C 80.800 279.820,81.340 280.000,82.000 280.000 C 82.660 280.000,83.200 280.180,83.200 280.400 C 83.200 280.620,83.740 280.800,84.400 280.800 C 85.060 280.800,85.600 280.980,85.600 281.200 C 85.600 281.420,86.140 281.600,86.800 281.600 C 87.460 281.600,88.000 281.780,88.000 282.000 C 88.000 282.220,88.540 282.400,89.200 282.400 C 89.860 282.400,90.400 282.580,90.400 282.800 C 90.400 283.020,90.929 283.200,91.576 283.200 C 92.223 283.200,92.864 283.380,93.000 283.600 C 93.136 283.820,93.856 284.000,94.600 284.000 C 95.344 284.000,96.064 284.180,96.200 284.400 C 96.336 284.620,96.966 284.800,97.600 284.800 C 98.234 284.800,98.864 284.980,99.000 285.200 C 99.136 285.420,99.856 285.600,100.600 285.600 C 101.344 285.600,102.064 285.780,102.200 286.000 C 102.336 286.220,103.056 286.400,103.800 286.400 C 104.544 286.400,105.264 286.580,105.400 286.800 C 105.536 287.020,106.267 287.200,107.024 287.200 C 107.781 287.200,108.400 287.380,108.400 287.600 C 108.400 287.820,109.019 288.000,109.776 288.000 C 110.533 288.000,111.264 288.180,111.400 288.400 C 111.536 288.620,112.256 288.800,113.000 288.800 C 113.744 288.800,114.452 288.961,114.574 289.158 C 114.695 289.355,115.471 289.615,116.297 289.737 C 117.124 289.859,118.790 290.158,120.000 290.400 C 121.210 290.643,123.761 291.057,125.669 291.321 C 127.578 291.584,129.273 291.935,129.436 292.100 C 129.600 292.265,130.513 292.400,131.467 292.400 C 132.420 292.400,133.200 292.580,133.200 292.800 C 133.200 293.020,134.100 293.200,135.200 293.200 C 136.300 293.200,137.200 293.380,137.200 293.600 C 137.200 293.820,138.100 294.000,139.200 294.000 C 140.300 294.000,141.200 294.180,141.200 294.400 C 141.200 294.622,142.267 294.800,143.600 294.800 C 144.933 294.800,146.000 294.978,146.000 295.200 C 146.000 295.426,147.133 295.600,148.600 295.600 C 150.067 295.600,151.200 295.774,151.200 296.000 C 151.200 296.229,152.400 296.400,154.000 296.400 C 155.600 296.400,156.800 296.571,156.800 296.800 C 156.800 297.022,157.867 297.200,159.200 297.200 C 160.533 297.200,161.600 297.378,161.600 297.600 C 161.600 297.826,162.733 298.000,164.200 298.000 C 165.667 298.000,166.800 298.174,166.800 298.400 C 166.800 298.633,168.133 298.800,170.000 298.800 C 171.867 298.800,173.200 298.967,173.200 299.200 C 173.200 299.437,174.659 299.600,176.776 299.600 C 178.743 299.600,180.464 299.780,180.600 300.000 C 180.742 300.231,182.871 300.400,185.624 300.400 C 188.541 300.400,190.400 300.556,190.400 300.800 C 190.400 301.051,192.992 301.200,197.376 301.200 C 201.596 301.200,204.450 301.358,204.600 301.600 C 204.760 301.859,212.530 302.000,226.600 302.000 C 240.670 302.000,248.440 301.859,248.600 301.600 C 248.749 301.359,251.530 301.200,255.600 301.200 C 259.670 301.200,262.451 301.041,262.600 300.800 C 262.740 300.573,264.737 300.400,267.224 300.400 C 269.875 300.400,271.600 300.242,271.600 300.000 C 271.600 299.760,273.192 299.600,275.576 299.600 C 277.796 299.600,279.662 299.423,279.800 299.200 C 279.936 298.980,281.556 298.800,283.400 298.800 C 285.244 298.800,286.864 298.620,287.000 298.400 C 287.136 298.180,288.216 298.000,289.400 298.000 C 290.584 298.000,291.664 297.820,291.800 297.600 C 291.936 297.380,293.207 297.200,294.624 297.200 C 296.075 297.200,297.200 297.025,297.200 296.800 C 297.200 296.575,298.325 296.400,299.776 296.400 C 301.193 296.400,302.464 296.220,302.600 296.000 C 302.736 295.780,303.737 295.600,304.824 295.600 C 305.911 295.600,306.800 295.420,306.800 295.200 C 306.800 294.980,307.610 294.800,308.600 294.800 C 309.590 294.800,310.400 294.620,310.400 294.400 C 310.400 294.180,311.300 294.000,312.400 294.000 C 313.500 294.000,314.400 293.820,314.400 293.600 C 314.400 293.380,315.210 293.200,316.200 293.200 C 317.190 293.200,318.000 293.020,318.000 292.800 C 318.000 292.580,318.810 292.400,319.800 292.400 C 320.790 292.400,321.600 292.246,321.600 292.058 C 321.600 291.870,322.802 291.603,324.272 291.466 C 325.741 291.329,327.127 291.033,327.352 290.808 C 327.576 290.584,328.264 290.400,328.880 290.400 C 329.496 290.400,330.000 290.220,330.000 290.000 C 330.000 289.780,330.619 289.600,331.376 289.600 C 332.133 289.600,332.864 289.420,333.000 289.200 C 333.136 288.980,333.777 288.800,334.424 288.800 C 335.071 288.800,335.600 288.620,335.600 288.400 C 335.600 288.180,336.219 288.000,336.976 288.000 C 337.733 288.000,338.464 287.820,338.600 287.600 C 338.736 287.380,339.276 287.200,339.800 287.200 C 340.324 287.200,340.864 287.020,341.000 286.800 C 341.136 286.580,341.687 286.400,342.224 286.400 C 342.761 286.400,343.200 286.220,343.200 286.000 C 343.200 285.780,343.740 285.600,344.400 285.600 C 345.060 285.600,345.600 285.420,345.600 285.200 C 345.600 284.980,346.039 284.800,346.576 284.800 C 347.113 284.800,347.664 284.620,347.800 284.400 C 347.936 284.180,348.397 284.000,348.824 284.000 C 349.251 284.000,349.600 283.820,349.600 283.600 C 349.600 283.380,350.039 283.200,350.576 283.200 C 351.113 283.200,351.664 283.020,351.800 282.800 C 351.936 282.580,352.397 282.400,352.824 282.400 C 353.251 282.400,353.600 282.220,353.600 282.000 C 353.600 281.780,353.960 281.600,354.400 281.600 C 354.840 281.600,355.200 281.420,355.200 281.200 C 355.200 280.980,355.650 280.800,356.200 280.800 C 356.750 280.800,357.200 280.620,357.200 280.400 C 357.200 280.180,357.560 280.000,358.000 280.000 C 358.440 280.000,358.800 279.820,358.800 279.600 C 358.800 279.380,359.160 279.200,359.600 279.200 C 360.040 279.200,360.400 279.020,360.400 278.800 C 360.400 278.580,360.760 278.400,361.200 278.400 C 361.640 278.400,362.000 278.220,362.000 278.000 C 362.000 277.780,362.360 277.600,362.800 277.600 C 363.240 277.600,363.600 277.420,363.600 277.200 C 363.600 276.980,363.894 276.800,364.253 276.800 C 364.612 276.800,365.197 276.469,365.553 276.064 C 365.909 275.659,366.672 275.212,367.248 275.069 C 368.463 274.770,375.490 270.242,376.447 269.143 C 376.803 268.734,377.279 268.400,377.506 268.400 C 377.733 268.400,378.838 267.500,379.961 266.400 C 381.085 265.300,382.165 264.400,382.361 264.400 C 383.180 264.400,390.486 256.327,391.315 254.506 C 391.543 254.008,391.880 253.600,392.064 253.600 C 392.249 253.600,392.400 253.364,392.400 253.075 C 392.400 252.787,392.760 252.164,393.200 251.692 C 393.640 251.220,394.000 250.556,394.000 250.217 C 394.000 249.878,394.180 249.600,394.400 249.600 C 394.620 249.600,394.800 249.240,394.800 248.800 C 394.800 248.360,394.980 248.000,395.200 248.000 C 395.420 248.000,395.600 247.640,395.600 247.200 C 395.600 246.760,395.780 246.400,396.000 246.400 C 396.220 246.400,396.400 246.040,396.400 245.600 C 396.400 245.160,396.580 244.800,396.800 244.800 C 397.020 244.800,397.200 244.440,397.200 244.000 C 397.200 243.560,397.380 243.200,397.600 243.200 C 397.820 243.200,398.000 242.660,398.000 242.000 C 398.000 241.340,398.180 240.800,398.400 240.800 C 398.620 240.800,398.800 240.296,398.800 239.680 C 398.800 239.064,399.025 238.335,399.300 238.060 C 399.676 237.684,399.800 234.817,399.800 226.513 C 399.800 218.032,399.684 215.428,399.300 215.300 C 399.025 215.208,398.800 214.608,398.800 213.967 C 398.800 213.325,398.620 212.800,398.400 212.800 C 398.180 212.800,398.000 212.350,398.000 211.800 C 398.000 211.250,397.820 210.800,397.600 210.800 C 397.380 210.800,397.200 210.440,397.200 210.000 C 397.200 209.560,397.020 209.200,396.800 209.200 C 396.580 209.200,396.400 208.922,396.400 208.583 C 396.400 208.244,396.040 207.580,395.600 207.108 C 395.160 206.636,394.800 206.013,394.800 205.725 C 394.800 205.436,394.620 205.200,394.400 205.200 C 394.180 205.200,394.000 204.912,394.000 204.560 C 394.000 204.209,393.460 203.417,392.800 202.800 C 392.140 202.183,391.600 201.423,391.600 201.111 C 391.600 200.799,390.790 199.698,389.800 198.665 C 387.698 196.471,387.656 196.217,389.106 194.523 C 391.025 192.282,391.600 191.450,391.600 190.919 C 391.600 190.633,391.780 190.400,392.000 190.400 C 392.220 190.400,392.400 190.040,392.400 189.600 C 392.400 189.160,392.580 188.800,392.800 188.800 C 393.020 188.800,393.200 188.440,393.200 188.000 C 393.200 187.560,393.380 187.200,393.600 187.200 C 393.820 187.200,394.000 186.480,394.000 185.600 C 394.000 184.720,394.180 184.000,394.400 184.000 C 394.643 184.000,394.800 182.200,394.800 179.400 C 394.800 176.600,394.643 174.800,394.400 174.800 C 394.180 174.800,394.000 174.260,394.000 173.600 C 394.000 172.940,393.820 172.400,393.600 172.400 C 393.380 172.400,393.200 171.860,393.200 171.200 C 393.200 170.540,393.020 170.000,392.800 170.000 C 392.580 170.000,392.400 169.460,392.400 168.800 C 392.400 168.140,392.232 167.600,392.027 167.600 C 391.822 167.600,391.526 167.195,391.369 166.700 C 390.951 165.377,388.348 161.197,386.984 159.659 C 384.367 156.707,375.959 148.490,373.826 146.800 C 372.576 145.810,371.069 144.595,370.477 144.100 C 369.885 143.606,369.175 143.201,368.900 143.200 C 368.625 143.200,368.400 143.061,368.400 142.891 C 368.400 142.721,367.725 142.228,366.900 141.796 C 366.075 141.364,365.109 140.694,364.753 140.306 C 364.397 139.917,363.812 139.600,363.453 139.600 C 363.094 139.600,362.800 139.420,362.800 139.200 C 362.800 138.980,362.480 138.800,362.088 138.800 C 361.697 138.800,361.117 138.440,360.800 138.000 C 360.483 137.560,359.903 137.200,359.512 137.200 C 359.120 137.200,358.800 137.020,358.800 136.800 C 358.800 136.580,358.612 136.400,358.383 136.400 C 358.154 136.400,357.580 136.040,357.108 135.600 C 356.636 135.160,356.013 134.800,355.725 134.800 C 355.436 134.800,355.200 134.620,355.200 134.400 C 355.200 134.180,354.840 134.000,354.400 134.000 C 353.960 134.000,353.600 133.820,353.600 133.600 C 353.600 133.380,353.240 133.200,352.800 133.200 C 352.360 133.200,352.000 133.048,352.000 132.863 C 352.000 132.677,351.145 132.092,350.100 131.563 C 349.055 131.033,348.140 130.465,348.067 130.300 C 347.993 130.135,347.588 130.000,347.167 130.000 C 346.745 130.000,346.400 129.820,346.400 129.600 C 346.400 129.380,346.040 129.200,345.600 129.200 C 345.160 129.200,344.800 129.020,344.800 128.800 C 344.800 128.580,344.440 128.400,344.000 128.400 C 343.560 128.400,343.200 128.220,343.200 128.000 C 343.200 127.780,342.962 127.600,342.671 127.600 C 342.380 127.600,341.009 127.051,339.625 126.381 C 338.241 125.710,336.589 125.058,335.954 124.931 C 335.319 124.804,334.800 124.543,334.800 124.350 C 334.800 124.158,334.440 124.000,334.000 124.000 C 333.560 124.000,333.200 123.820,333.200 123.600 C 333.200 123.380,332.660 123.200,332.000 123.200 C 331.340 123.200,330.800 123.020,330.800 122.800 C 330.800 122.580,330.440 122.400,330.000 122.400 C 329.560 122.400,329.200 122.220,329.200 122.000 C 329.200 121.780,328.840 121.600,328.400 121.600 C 327.960 121.600,327.600 121.420,327.600 121.200 C 327.600 120.980,327.060 120.800,326.400 120.800 C 325.740 120.800,325.200 120.620,325.200 120.400 C 325.200 120.180,324.840 120.000,324.400 120.000 C 323.960 120.000,323.600 119.820,323.600 119.600 C 323.600 119.380,323.150 119.200,322.600 119.200 C 322.050 119.200,321.600 119.020,321.600 118.800 C 321.600 118.580,321.060 118.400,320.400 118.400 C 319.740 118.400,319.200 118.220,319.200 118.000 C 319.200 117.780,318.761 117.600,318.224 117.600 C 317.687 117.600,317.136 117.420,317.000 117.200 C 316.864 116.980,316.403 116.800,315.976 116.800 C 315.549 116.800,315.200 116.620,315.200 116.400 C 315.200 116.180,314.660 116.000,314.000 116.000 C 313.340 116.000,312.800 115.820,312.800 115.600 C 312.800 115.380,312.260 115.200,311.600 115.200 C 310.940 115.200,310.400 115.020,310.400 114.800 C 310.400 114.580,309.860 114.400,309.200 114.400 C 308.540 114.400,308.000 114.220,308.000 114.000 C 308.000 113.780,307.460 113.600,306.800 113.600 C 306.140 113.600,305.600 113.420,305.600 113.200 C 305.600 112.980,305.071 112.800,304.424 112.800 C 303.777 112.800,303.136 112.620,303.000 112.400 C 302.864 112.180,302.223 112.000,301.576 112.000 C 300.929 112.000,300.400 111.840,300.400 111.644 C 300.400 111.307,299.951 111.190,296.300 110.568 C 295.475 110.427,294.800 110.152,294.800 109.956 C 294.800 109.760,294.338 109.600,293.774 109.600 C 293.209 109.600,292.408 109.418,291.992 109.196 C 291.577 108.973,290.149 108.678,288.818 108.539 C 287.488 108.400,286.400 108.132,286.400 107.943 C 286.400 107.754,285.680 107.600,284.800 107.600 C 283.920 107.600,283.200 107.420,283.200 107.200 C 283.200 106.980,282.491 106.800,281.624 106.800 C 280.757 106.800,279.936 106.620,279.800 106.400 C 279.664 106.180,278.753 106.000,277.776 106.000 C 276.799 106.000,276.000 105.820,276.000 105.600 C 276.000 105.380,275.190 105.200,274.200 105.200 C 273.210 105.200,272.400 105.020,272.400 104.800 C 272.400 104.580,271.500 104.400,270.400 104.400 C 269.300 104.400,268.400 104.220,268.400 104.000 C 268.400 103.780,267.500 103.600,266.400 103.600 C 265.300 103.600,264.400 103.420,264.400 103.200 C 264.400 102.978,263.333 102.800,262.000 102.800 C 260.667 102.800,259.600 102.622,259.600 102.400 C 259.600 102.178,258.541 102.000,257.224 102.000 C 255.917 102.000,254.736 101.820,254.600 101.600 C 254.464 101.380,253.283 101.200,251.976 101.200 C 250.659 101.200,249.600 101.022,249.600 100.800 C 249.600 100.563,248.133 100.400,246.000 100.400 C 243.867 100.400,242.400 100.237,242.400 100.000 C 242.400 99.765,241.008 99.600,239.024 99.600 C 237.167 99.600,235.536 99.420,235.400 99.200 C 235.255 98.965,232.929 98.800,229.776 98.800 C 226.459 98.800,224.400 98.647,224.400 98.400 C 224.400 98.140,219.133 98.000,209.400 98.000 C 199.667 98.000,194.400 98.140,194.400 98.400 M222.200 110.000 C 222.336 110.220,223.607 110.400,225.024 110.400 C 226.475 110.400,227.600 110.575,227.600 110.800 C 227.600 111.020,228.129 111.200,228.776 111.200 C 229.423 111.200,230.064 111.380,230.200 111.600 C 230.336 111.820,231.067 112.000,231.824 112.000 C 232.581 112.000,233.200 112.180,233.200 112.400 C 233.200 112.620,233.740 112.800,234.400 112.800 C 235.060 112.800,235.600 112.980,235.600 113.200 C 235.600 113.420,236.140 113.600,236.800 113.600 C 237.460 113.600,238.000 113.780,238.000 114.000 C 238.000 114.220,238.349 114.400,238.776 114.400 C 239.203 114.400,239.664 114.580,239.800 114.800 C 239.936 115.020,240.487 115.200,241.024 115.200 C 241.561 115.200,242.000 115.380,242.000 115.600 C 242.000 115.820,242.450 116.000,243.000 116.000 C 243.550 116.000,244.000 116.180,244.000 116.400 C 244.000 116.620,244.360 116.800,244.800 116.800 C 245.240 116.800,245.600 116.980,245.600 117.200 C 245.600 117.420,245.960 117.600,246.400 117.600 C 246.840 117.600,247.200 117.780,247.200 118.000 C 247.200 118.220,247.549 118.400,247.976 118.400 C 248.403 118.400,248.864 118.580,249.000 118.800 C 249.136 119.020,249.687 119.200,250.224 119.200 C 250.761 119.200,251.200 119.380,251.200 119.600 C 251.200 119.820,251.560 120.000,252.000 120.000 C 252.440 120.000,252.801 120.135,252.803 120.300 C 252.805 120.465,253.210 120.798,253.703 121.040 C 255.634 121.988,258.210 123.412,258.400 123.636 C 258.510 123.765,259.365 124.205,260.300 124.613 C 261.235 125.020,262.000 125.499,262.000 125.677 C 262.000 125.855,262.270 126.000,262.600 126.000 C 262.930 126.000,263.200 126.180,263.200 126.400 C 263.200 126.620,263.430 126.800,263.712 126.800 C 263.993 126.800,264.483 127.160,264.800 127.600 C 265.117 128.040,265.657 128.400,266.000 128.400 C 266.343 128.400,266.883 128.760,267.200 129.200 C 267.517 129.640,268.019 130.000,268.314 130.000 C 268.610 130.000,269.729 130.900,270.800 132.000 C 271.871 133.100,272.953 134.000,273.203 134.000 C 273.736 134.000,274.068 134.333,276.192 137.001 C 277.068 138.100,278.282 139.540,278.890 140.200 C 279.499 140.860,279.997 141.585,279.998 141.812 C 279.999 142.038,280.360 142.483,280.800 142.800 C 281.240 143.117,281.600 143.657,281.600 144.000 C 281.600 144.343,281.960 144.883,282.400 145.200 C 282.840 145.517,283.200 146.097,283.200 146.488 C 283.200 146.880,283.380 147.200,283.600 147.200 C 283.820 147.200,284.000 147.478,284.000 147.818 C 284.000 148.792,285.860 150.400,286.987 150.400 C 287.550 150.400,288.392 150.625,288.858 150.900 C 289.535 151.300,289.741 151.300,289.886 150.900 C 289.985 150.625,290.508 150.400,291.047 150.400 C 294.079 150.400,296.442 143.360,294.000 141.600 C 293.560 141.283,293.200 140.703,293.200 140.312 C 293.200 139.920,293.020 139.600,292.800 139.600 C 292.580 139.600,292.400 139.240,292.400 138.800 C 292.400 138.360,292.255 138.000,292.077 138.000 C 291.899 138.000,291.436 137.280,291.048 136.400 C 290.660 135.520,290.175 134.800,289.971 134.800 C 289.767 134.800,289.600 134.565,289.600 134.278 C 289.600 133.455,281.964 125.200,281.202 125.200 C 280.992 125.200,280.011 124.390,279.021 123.400 C 278.031 122.410,277.033 121.600,276.803 121.600 C 276.574 121.600,275.794 121.015,275.070 120.300 C 273.387 118.636,272.361 117.833,271.382 117.412 C 270.637 117.092,270.635 117.068,271.342 116.901 C 271.751 116.804,272.282 116.922,272.522 117.162 C 272.763 117.403,273.734 117.600,274.680 117.600 C 275.626 117.600,276.400 117.780,276.400 118.000 C 276.400 118.220,277.210 118.400,278.200 118.400 C 279.190 118.400,280.000 118.580,280.000 118.800 C 280.000 119.020,280.720 119.200,281.600 119.200 C 282.480 119.200,283.200 119.380,283.200 119.600 C 283.200 119.820,283.819 120.000,284.576 120.000 C 285.333 120.000,286.064 120.180,286.200 120.400 C 286.336 120.620,286.966 120.800,287.600 120.800 C 288.234 120.800,288.864 120.980,289.000 121.200 C 289.136 121.420,289.867 121.600,290.624 121.600 C 291.381 121.600,292.000 121.780,292.000 122.000 C 292.000 122.220,292.619 122.400,293.376 122.400 C 294.133 122.400,294.864 122.580,295.000 122.800 C 295.136 123.020,295.766 123.200,296.400 123.200 C 297.034 123.200,297.664 123.380,297.800 123.600 C 297.936 123.820,298.566 124.000,299.200 124.000 C 299.834 124.000,300.456 124.167,300.583 124.372 C 300.709 124.577,301.800 124.867,303.006 125.018 C 304.213 125.169,305.200 125.451,305.200 125.646 C 305.200 125.841,305.740 126.000,306.400 126.000 C 307.060 126.000,307.600 126.180,307.600 126.400 C 307.600 126.620,308.050 126.800,308.600 126.800 C 309.150 126.800,309.600 126.980,309.600 127.200 C 309.600 127.420,310.140 127.600,310.800 127.600 C 311.460 127.600,312.000 127.780,312.000 128.000 C 312.000 128.220,312.540 128.400,313.200 128.400 C 313.860 128.400,314.400 128.580,314.400 128.800 C 314.400 129.020,314.749 129.200,315.176 129.200 C 315.603 129.200,316.064 129.380,316.200 129.600 C 316.336 129.820,316.887 130.000,317.424 130.000 C 317.961 130.000,318.400 130.180,318.400 130.400 C 318.400 130.620,318.940 130.800,319.600 130.800 C 320.260 130.800,320.800 130.980,320.800 131.200 C 320.800 131.420,321.160 131.600,321.600 131.600 C 322.040 131.600,322.400 131.780,322.400 132.000 C 322.400 132.220,322.940 132.400,323.600 132.400 C 324.260 132.400,324.800 132.580,324.800 132.800 C 324.800 133.020,325.160 133.200,325.600 133.200 C 326.040 133.200,326.400 133.380,326.400 133.600 C 326.400 133.820,326.850 134.000,327.400 134.000 C 327.950 134.000,328.400 134.180,328.400 134.400 C 328.400 134.620,328.760 134.800,329.200 134.800 C 329.640 134.800,330.000 134.980,330.000 135.200 C 330.000 135.420,330.253 135.600,330.562 135.600 C 331.047 135.600,332.320 136.152,335.295 137.650 C 335.677 137.843,336.262 138.000,336.595 138.000 C 336.928 138.000,337.200 138.180,337.200 138.400 C 337.200 138.620,337.560 138.800,338.000 138.800 C 338.440 138.800,338.800 138.980,338.800 139.200 C 338.800 139.420,339.160 139.600,339.600 139.600 C 340.040 139.600,340.400 139.780,340.400 140.000 C 340.400 140.220,340.715 140.406,341.100 140.413 C 341.485 140.420,342.149 140.690,342.576 141.013 C 343.004 141.336,343.679 141.600,344.076 141.600 C 344.474 141.600,344.800 141.780,344.800 142.000 C 344.800 142.220,345.070 142.400,345.400 142.400 C 345.730 142.400,346.000 142.580,346.000 142.800 C 346.000 143.020,346.270 143.200,346.600 143.200 C 346.930 143.200,347.200 143.380,347.200 143.600 C 347.200 143.820,347.560 144.000,348.000 144.000 C 348.440 144.000,348.800 144.180,348.800 144.400 C 348.800 144.620,349.078 144.800,349.417 144.800 C 349.756 144.800,350.420 145.160,350.892 145.600 C 351.364 146.040,351.987 146.400,352.275 146.400 C 352.564 146.400,352.800 146.580,352.800 146.800 C 352.800 147.020,353.160 147.200,353.600 147.200 C 354.040 147.200,354.400 147.380,354.400 147.600 C 354.400 147.820,354.643 148.000,354.941 148.000 C 355.238 148.000,356.046 148.540,356.737 149.200 C 357.428 149.860,358.146 150.400,358.334 150.400 C 358.522 150.400,359.002 150.760,359.400 151.200 C 359.798 151.640,360.326 152.000,360.574 152.000 C 360.821 152.000,361.283 152.360,361.600 152.800 C 361.917 153.240,362.373 153.600,362.613 153.600 C 362.853 153.600,363.398 153.920,363.825 154.311 C 364.251 154.702,365.230 155.463,366.000 156.003 C 369.109 158.183,376.936 166.012,378.007 168.012 C 378.283 168.528,378.844 169.310,379.254 169.750 C 379.664 170.191,380.000 170.772,380.000 171.042 C 380.000 171.312,380.135 171.593,380.300 171.667 C 380.799 171.888,382.400 175.222,382.400 176.038 C 382.400 176.457,382.580 176.800,382.800 176.800 C 383.029 176.800,383.200 178.000,383.200 179.600 C 383.200 181.200,383.029 182.400,382.800 182.400 C 382.580 182.400,382.400 182.760,382.400 183.200 C 382.400 183.640,382.220 184.000,382.000 184.000 C 381.780 184.000,381.600 184.249,381.600 184.554 C 381.600 185.209,376.655 190.400,376.031 190.400 C 375.794 190.400,375.600 190.567,375.600 190.771 C 375.600 190.975,374.880 191.460,374.000 191.848 C 373.120 192.236,372.400 192.699,372.400 192.877 C 372.400 193.055,372.164 193.200,371.875 193.200 C 371.587 193.200,370.964 193.560,370.492 194.000 C 370.020 194.440,369.356 194.800,369.017 194.800 C 368.678 194.800,368.400 194.980,368.400 195.200 C 368.400 195.420,368.040 195.600,367.600 195.600 C 367.160 195.600,366.800 195.780,366.800 196.000 C 366.800 196.220,366.440 196.400,366.000 196.400 C 365.560 196.400,365.200 196.580,365.200 196.800 C 365.200 197.020,364.840 197.200,364.400 197.200 C 363.960 197.200,363.600 197.380,363.600 197.600 C 363.600 197.820,363.240 198.000,362.800 198.000 C 362.360 198.000,362.000 198.180,362.000 198.400 C 362.000 198.620,361.550 198.800,361.000 198.800 C 360.450 198.800,360.000 198.980,360.000 199.200 C 360.000 199.420,359.640 199.600,359.200 199.600 C 358.760 199.600,358.400 199.780,358.400 200.000 C 358.400 200.220,357.860 200.400,357.200 200.400 C 356.540 200.400,356.000 200.580,356.000 200.800 C 356.000 201.020,355.640 201.200,355.200 201.200 C 354.760 201.200,354.400 201.380,354.400 201.600 C 354.400 201.820,353.961 202.000,353.424 202.000 C 352.887 202.000,352.336 202.180,352.200 202.400 C 352.064 202.620,351.603 202.800,351.176 202.800 C 350.749 202.800,350.400 202.980,350.400 203.200 C 350.400 203.420,349.860 203.600,349.200 203.600 C 348.540 203.600,348.000 203.780,348.000 204.000 C 348.000 204.220,347.460 204.400,346.800 204.400 C 346.140 204.400,345.600 204.580,345.600 204.800 C 345.600 205.020,345.161 205.200,344.624 205.200 C 344.087 205.200,343.536 205.380,343.400 205.600 C 343.264 205.820,342.713 206.000,342.176 206.000 C 341.639 206.000,341.200 206.180,341.200 206.400 C 341.200 206.620,340.660 206.800,340.000 206.800 C 339.340 206.800,338.800 206.980,338.800 207.200 C 338.800 207.420,338.080 207.600,337.200 207.600 C 336.320 207.600,335.600 207.746,335.600 207.924 C 335.600 208.209,333.499 208.721,329.296 209.459 C 328.579 209.585,327.894 209.849,327.773 210.044 C 327.652 210.240,326.933 210.400,326.176 210.400 C 325.419 210.400,324.800 210.580,324.800 210.800 C 324.800 211.020,324.080 211.200,323.200 211.200 C 322.320 211.200,321.600 211.380,321.600 211.600 C 321.600 211.820,320.880 212.000,320.000 212.000 C 319.120 212.000,318.400 212.180,318.400 212.400 C 318.400 212.620,317.691 212.800,316.824 212.800 C 315.957 212.800,315.136 212.980,315.000 213.200 C 314.864 213.420,314.054 213.600,313.200 213.600 C 312.346 213.600,311.536 213.780,311.400 214.000 C 311.264 214.220,310.353 214.400,309.376 214.400 C 308.399 214.400,307.600 214.580,307.600 214.800 C 307.600 215.020,306.801 215.200,305.824 215.200 C 304.847 215.200,303.936 215.380,303.800 215.600 C 303.664 215.820,302.764 216.000,301.800 216.000 C 300.836 216.000,299.936 216.180,299.800 216.400 C 299.664 216.620,298.663 216.800,297.576 216.800 C 296.489 216.800,295.600 216.980,295.600 217.200 C 295.600 217.420,294.610 217.600,293.400 217.600 C 292.190 217.600,291.200 217.780,291.200 218.000 C 291.200 218.220,290.311 218.400,289.224 218.400 C 288.137 218.400,287.136 218.580,287.000 218.800 C 286.864 219.020,285.593 219.200,284.176 219.200 C 282.725 219.200,281.600 219.375,281.600 219.600 C 281.600 219.822,280.533 220.000,279.200 220.000 C 277.867 220.000,276.800 220.178,276.800 220.400 C 276.800 220.626,275.667 220.800,274.200 220.800 C 272.733 220.800,271.600 220.974,271.600 221.200 C 271.600 221.431,270.341 221.600,268.624 221.600 C 266.987 221.600,265.536 221.780,265.400 222.000 C 265.264 222.220,264.004 222.400,262.600 222.400 C 261.196 222.400,259.936 222.580,259.800 222.800 C 259.664 223.020,258.033 223.200,256.176 223.200 C 254.192 223.200,252.800 223.365,252.800 223.600 C 252.800 223.839,251.267 224.000,249.000 224.000 C 246.910 224.000,245.200 224.150,245.200 224.333 C 245.200 224.516,241.105 224.893,236.100 225.170 C 231.095 225.447,223.760 225.851,219.800 226.068 C 210.396 226.582,185.988 226.593,177.600 226.088 C 166.147 225.397,158.000 224.665,158.000 224.327 C 158.000 224.147,156.920 224.000,155.600 224.000 C 154.267 224.000,153.200 223.822,153.200 223.600 C 153.200 223.380,152.210 223.200,151.000 223.200 C 149.790 223.200,148.800 223.020,148.800 222.800 C 148.800 222.578,147.733 222.400,146.400 222.400 C 145.067 222.400,144.000 222.222,144.000 222.000 C 144.000 221.780,143.100 221.600,142.000 221.600 C 140.900 221.600,140.000 221.420,140.000 221.200 C 140.000 220.980,139.010 220.800,137.800 220.800 C 136.590 220.800,135.600 220.620,135.600 220.400 C 135.600 220.180,134.700 220.000,133.600 220.000 C 132.500 220.000,131.600 219.820,131.600 219.600 C 131.600 219.380,130.880 219.200,130.000 219.200 C 129.120 219.200,128.400 219.020,128.400 218.800 C 128.400 218.580,127.601 218.400,126.624 218.400 C 125.647 218.400,124.736 218.220,124.600 218.000 C 124.464 217.780,123.733 217.600,122.976 217.600 C 122.219 217.600,121.600 217.420,121.600 217.200 C 121.600 216.980,120.891 216.800,120.024 216.800 C 119.157 216.800,118.336 216.620,118.200 216.400 C 118.064 216.180,117.153 216.000,116.176 216.000 C 115.199 216.000,114.400 215.820,114.400 215.600 C 114.400 215.380,113.680 215.200,112.800 215.200 C 111.920 215.200,111.200 215.020,111.200 214.800 C 111.200 214.580,110.480 214.400,109.600 214.400 C 108.720 214.400,108.000 214.220,108.000 214.000 C 108.000 213.780,107.370 213.600,106.600 213.600 C 105.830 213.600,105.200 213.420,105.200 213.200 C 105.200 212.980,104.671 212.800,104.024 212.800 C 103.377 212.800,102.736 212.620,102.600 212.400 C 102.464 212.180,101.733 212.000,100.976 212.000 C 100.219 212.000,99.600 211.840,99.600 211.644 C 99.600 211.448,99.015 211.191,98.300 211.072 C 96.236 210.731,94.664 210.365,93.800 210.025 C 91.706 209.202,89.790 208.721,87.788 208.514 C 86.585 208.390,85.600 208.133,85.600 207.944 C 85.600 207.755,85.060 207.600,84.400 207.600 C 83.740 207.600,83.200 207.420,83.200 207.200 C 83.200 206.980,82.660 206.800,82.000 206.800 C 81.340 206.800,80.800 206.620,80.800 206.400 C 80.800 206.180,80.260 206.000,79.600 206.000 C 78.940 206.000,78.400 205.820,78.400 205.600 C 78.400 205.380,77.860 205.200,77.200 205.200 C 76.540 205.200,76.000 205.020,76.000 204.800 C 76.000 204.580,75.561 204.400,75.024 204.400 C 74.487 204.400,73.936 204.220,73.800 204.000 C 73.664 203.780,73.113 203.600,72.576 203.600 C 72.039 203.600,71.600 203.420,71.600 203.200 C 71.600 202.980,71.060 202.800,70.400 202.800 C 69.740 202.800,69.200 202.620,69.200 202.400 C 69.200 202.180,68.660 202.000,68.000 202.000 C 67.340 202.000,66.800 201.820,66.800 201.600 C 66.800 201.380,66.260 201.200,65.600 201.200 C 64.940 201.200,64.400 201.020,64.400 200.800 C 64.400 200.580,63.860 200.400,63.200 200.400 C 62.540 200.400,62.000 200.220,62.000 200.000 C 62.000 199.780,61.460 199.600,60.800 199.600 C 60.140 199.600,59.600 199.420,59.600 199.200 C 59.600 198.980,59.240 198.800,58.800 198.800 C 58.360 198.800,58.000 198.620,58.000 198.400 C 58.000 198.180,57.550 198.000,57.000 198.000 C 56.450 198.000,56.000 197.820,56.000 197.600 C 56.000 197.380,55.651 197.200,55.224 197.200 C 54.797 197.200,54.336 197.020,54.200 196.800 C 54.064 196.580,53.513 196.400,52.976 196.400 C 52.439 196.400,52.000 196.220,52.000 196.000 C 52.000 195.780,51.651 195.600,51.224 195.600 C 50.797 195.600,50.336 195.420,50.200 195.200 C 50.064 194.980,49.513 194.800,48.976 194.800 C 48.439 194.800,48.000 194.659,48.000 194.487 C 48.000 194.315,47.149 193.923,46.109 193.616 C 45.068 193.309,43.763 192.821,43.209 192.531 C 42.654 192.242,41.896 192.004,41.524 192.002 C 41.152 192.001,40.736 191.820,40.600 191.600 C 40.464 191.380,40.003 191.200,39.576 191.200 C 39.149 191.200,38.800 191.020,38.800 190.800 C 38.800 190.580,38.440 190.400,38.000 190.400 C 37.560 190.400,37.200 190.220,37.200 190.000 C 37.200 189.780,36.840 189.600,36.400 189.600 C 35.960 189.600,35.600 189.420,35.600 189.200 C 35.600 188.980,35.240 188.800,34.800 188.800 C 34.360 188.800,34.000 188.620,34.000 188.400 C 34.000 188.180,33.640 188.000,33.200 188.000 C 32.760 188.000,32.400 187.820,32.400 187.600 C 32.400 187.380,32.040 187.200,31.600 187.200 C 31.160 187.200,30.800 187.020,30.800 186.800 C 30.800 186.580,30.440 186.400,30.000 186.400 C 29.560 186.400,29.200 186.220,29.200 186.000 C 29.200 185.780,28.840 185.600,28.400 185.600 C 27.960 185.600,27.600 185.420,27.600 185.200 C 27.600 184.980,27.240 184.800,26.800 184.800 C 26.360 184.800,26.000 184.620,26.000 184.400 C 26.000 184.180,25.730 184.000,25.400 184.000 C 25.070 184.000,24.800 183.820,24.800 183.600 C 24.800 183.380,24.530 183.200,24.200 183.200 C 23.870 183.200,23.600 183.020,23.600 182.800 C 23.600 182.580,23.330 182.400,23.000 182.400 C 22.670 182.400,22.400 182.220,22.400 182.000 C 22.400 181.780,22.175 181.600,21.900 181.599 C 21.625 181.599,20.770 181.059,20.000 180.400 C 19.230 179.741,18.457 179.201,18.282 179.201 C 18.107 179.200,17.514 178.750,16.964 178.200 C 16.414 177.650,15.822 177.200,15.649 177.200 C 15.477 177.200,15.080 176.705,14.768 176.100 C 14.456 175.495,14.021 174.870,13.801 174.712 C 13.540 174.525,13.574 174.143,13.900 173.618 C 14.175 173.174,14.400 172.279,14.400 171.629 C 14.400 170.979,14.580 170.336,14.800 170.200 C 15.020 170.064,15.200 169.603,15.200 169.176 C 15.200 168.749,15.380 168.400,15.600 168.400 C 15.820 168.400,16.000 168.040,16.000 167.600 C 16.000 167.160,16.159 166.800,16.353 166.800 C 16.548 166.800,16.807 166.485,16.929 166.100 C 17.259 165.058,18.504 163.091,19.300 162.354 C 19.685 161.998,20.000 161.478,20.000 161.200 C 20.000 160.922,20.325 160.403,20.722 160.047 C 21.120 159.691,21.705 159.020,22.022 158.556 C 23.107 156.969,26.239 153.714,27.147 153.228 C 27.646 152.961,28.960 151.856,30.068 150.771 C 31.175 149.687,32.261 148.800,32.480 148.800 C 32.699 148.800,33.383 148.260,34.000 147.600 C 34.617 146.940,35.343 146.400,35.614 146.400 C 35.884 146.400,36.397 146.084,36.753 145.697 C 37.109 145.311,37.895 144.740,38.500 144.430 C 39.105 144.119,39.600 143.715,39.600 143.532 C 39.600 143.350,39.804 143.200,40.053 143.200 C 40.302 143.200,40.797 142.869,41.153 142.464 C 41.509 142.059,42.295 141.606,42.900 141.456 C 43.505 141.307,44.000 141.008,44.000 140.792 C 44.000 140.577,44.360 140.400,44.800 140.400 C 45.240 140.400,45.600 140.220,45.600 140.000 C 45.600 139.780,45.945 139.600,46.367 139.600 C 46.788 139.600,47.193 139.465,47.267 139.300 C 47.340 139.135,48.615 138.372,50.100 137.604 C 51.585 136.837,52.800 136.072,52.800 135.904 C 52.800 135.737,53.160 135.600,53.600 135.600 C 54.040 135.600,54.400 135.420,54.400 135.200 C 54.400 134.980,54.850 134.800,55.400 134.800 C 55.950 134.800,56.400 134.620,56.400 134.400 C 56.400 134.180,56.760 134.000,57.200 134.000 C 57.640 134.000,58.000 133.820,58.000 133.600 C 58.000 133.380,58.360 133.200,58.800 133.200 C 59.240 133.200,59.600 133.020,59.600 132.800 C 59.600 132.580,60.039 132.400,60.576 132.400 C 61.113 132.400,61.664 132.220,61.800 132.000 C 61.936 131.780,62.397 131.600,62.824 131.600 C 63.251 131.600,63.600 131.420,63.600 131.200 C 63.600 130.980,63.960 130.800,64.400 130.800 C 64.840 130.800,65.200 130.620,65.200 130.400 C 65.200 130.180,65.740 130.000,66.400 130.000 C 67.060 130.000,67.600 129.820,67.600 129.600 C 67.600 129.380,68.039 129.200,68.576 129.200 C 69.113 129.200,69.664 129.020,69.800 128.800 C 69.936 128.580,70.487 128.400,71.024 128.400 C 71.561 128.400,72.000 128.220,72.000 128.000 C 72.000 127.780,72.450 127.600,73.000 127.600 C 73.550 127.600,74.000 127.420,74.000 127.200 C 74.000 126.980,74.450 126.800,75.000 126.800 C 75.550 126.800,76.000 126.620,76.000 126.400 C 76.000 126.180,76.619 126.000,77.376 126.000 C 78.133 126.000,78.849 125.844,78.967 125.653 C 79.085 125.462,80.127 125.180,81.281 125.027 C 82.435 124.874,83.565 124.603,83.790 124.425 C 84.016 124.246,84.740 124.003,85.400 123.883 C 86.060 123.764,87.320 123.451,88.200 123.189 C 89.080 122.926,90.565 122.624,91.500 122.516 C 92.435 122.408,93.200 122.158,93.200 121.960 C 93.200 121.762,93.920 121.600,94.800 121.600 C 95.680 121.600,96.400 121.420,96.400 121.200 C 96.400 120.980,97.120 120.800,98.000 120.800 C 98.880 120.800,99.600 120.620,99.600 120.400 C 99.600 120.180,100.500 120.000,101.600 120.000 C 102.700 120.000,103.600 119.820,103.600 119.600 C 103.600 119.380,104.489 119.200,105.576 119.200 C 106.663 119.200,107.664 119.020,107.800 118.800 C 107.936 118.580,108.937 118.400,110.024 118.400 C 111.111 118.400,112.000 118.220,112.000 118.000 C 112.000 117.780,112.540 117.600,113.200 117.600 C 113.860 117.600,114.400 117.780,114.400 118.000 C 114.400 118.220,114.940 118.400,115.600 118.400 C 116.260 118.400,116.800 118.580,116.800 118.800 C 116.800 119.020,117.329 119.200,117.976 119.200 C 118.623 119.200,119.264 119.380,119.400 119.600 C 119.536 119.820,120.267 120.000,121.024 120.000 C 121.781 120.000,122.400 120.147,122.400 120.328 C 122.400 120.508,123.300 120.900,124.400 121.200 C 125.500 121.500,126.400 121.892,126.400 122.072 C 126.400 122.253,126.762 122.400,127.205 122.400 C 127.648 122.400,128.323 122.559,128.705 122.753 C 129.087 122.948,129.850 123.289,130.400 123.513 C 130.950 123.736,132.057 124.207,132.860 124.559 C 133.664 124.912,134.609 125.200,134.960 125.200 C 135.312 125.200,135.600 125.380,135.600 125.600 C 135.600 125.820,135.960 126.000,136.400 126.000 C 136.840 126.000,137.200 126.180,137.200 126.400 C 137.200 126.620,137.700 126.800,138.312 126.800 C 138.965 126.800,139.661 127.130,140.000 127.600 C 140.317 128.040,140.897 128.400,141.288 128.400 C 141.680 128.400,142.000 128.580,142.000 128.800 C 142.000 129.020,142.270 129.200,142.600 129.200 C 142.930 129.200,143.200 129.380,143.200 129.600 C 143.200 129.820,143.560 130.000,144.000 130.000 C 144.440 130.000,144.800 130.180,144.800 130.400 C 144.800 130.620,145.160 130.800,145.600 130.800 C 146.040 130.800,146.400 130.950,146.400 131.132 C 146.400 131.315,146.895 131.720,147.500 132.032 C 148.105 132.345,148.949 132.915,149.375 133.300 C 149.802 133.685,150.347 134.000,150.587 134.000 C 150.827 134.000,151.283 134.360,151.600 134.800 C 151.917 135.240,152.415 135.600,152.706 135.600 C 152.998 135.600,153.686 136.050,154.236 136.600 C 154.786 137.150,155.389 137.600,155.576 137.600 C 155.763 137.600,156.452 138.095,157.109 138.700 C 159.094 140.530,160.394 141.600,160.632 141.600 C 160.962 141.600,161.696 142.413,162.800 144.000 C 163.336 144.770,164.455 146.061,165.287 146.869 C 166.119 147.676,166.800 148.497,166.800 148.693 C 166.800 148.889,167.115 149.398,167.500 149.825 C 167.885 150.251,168.455 151.095,168.768 151.700 C 169.080 152.305,169.485 152.800,169.668 152.800 C 169.850 152.800,170.000 153.160,170.000 153.600 C 170.000 154.040,170.180 154.400,170.400 154.400 C 170.620 154.400,170.800 154.670,170.800 155.000 C 170.800 155.330,170.980 155.600,171.200 155.600 C 171.420 155.600,171.600 155.870,171.600 156.200 C 171.600 156.530,171.648 156.800,171.706 156.800 C 171.764 156.800,172.791 157.158,173.989 157.596 C 176.264 158.428,178.166 158.189,179.529 156.900 C 179.819 156.625,180.224 156.400,180.429 156.400 C 180.633 156.400,180.800 156.130,180.800 155.800 C 180.800 155.470,180.980 155.200,181.200 155.200 C 182.042 155.200,181.679 149.034,180.800 148.400 C 180.360 148.083,180.000 147.503,180.000 147.112 C 180.000 146.720,179.820 146.400,179.600 146.400 C 179.380 146.400,179.200 146.164,179.200 145.875 C 179.200 145.587,178.840 144.964,178.400 144.492 C 177.960 144.020,177.600 143.447,177.600 143.220 C 177.600 142.993,177.240 142.582,176.800 142.307 C 176.360 142.032,176.000 141.573,176.000 141.287 C 176.000 140.402,164.434 128.400,163.582 128.400 C 163.368 128.400,162.628 127.860,161.937 127.200 C 161.246 126.540,160.438 126.000,160.141 126.000 C 159.843 126.000,159.600 125.861,159.600 125.691 C 159.600 125.521,158.970 125.043,158.200 124.628 C 157.430 124.213,156.800 123.722,156.800 123.537 C 156.800 123.352,156.530 123.200,156.200 123.200 C 155.870 123.200,155.600 123.020,155.600 122.800 C 155.600 122.580,155.330 122.400,155.000 122.400 C 154.670 122.400,154.400 122.220,154.400 122.000 C 154.400 121.780,154.040 121.600,153.600 121.600 C 153.160 121.600,152.800 121.420,152.800 121.200 C 152.800 120.980,152.530 120.800,152.200 120.800 C 151.870 120.800,151.600 120.620,151.600 120.400 C 151.600 120.180,151.330 120.000,151.000 120.000 C 150.670 120.000,150.400 119.820,150.400 119.600 C 150.400 119.380,150.040 119.200,149.600 119.200 C 149.160 119.200,148.800 119.020,148.800 118.800 C 148.800 118.580,148.440 118.400,148.000 118.400 C 147.560 118.400,147.200 118.220,147.200 118.000 C 147.200 117.780,146.840 117.600,146.400 117.600 C 145.960 117.600,145.600 117.420,145.600 117.200 C 145.600 116.980,145.240 116.800,144.800 116.800 C 144.360 116.800,144.000 116.620,144.000 116.400 C 144.000 116.180,143.640 116.000,143.200 116.000 C 142.760 116.000,142.400 115.820,142.400 115.600 C 142.400 115.380,142.076 115.200,141.680 115.200 C 140.938 115.200,140.000 114.485,140.000 113.920 C 140.000 113.744,141.800 113.600,144.000 113.600 C 146.400 113.600,148.000 113.440,148.000 113.200 C 148.000 112.959,149.667 112.800,152.200 112.800 C 154.733 112.800,156.400 112.641,156.400 112.400 C 156.400 112.154,158.400 112.000,161.600 112.000 C 164.800 112.000,166.800 111.846,166.800 111.600 C 166.800 111.363,168.267 111.200,170.400 111.200 C 172.533 111.200,174.000 111.363,174.000 111.600 C 174.000 111.820,174.540 112.000,175.200 112.000 C 175.860 112.000,176.400 112.180,176.400 112.400 C 176.400 112.620,176.850 112.800,177.400 112.800 C 177.950 112.800,178.400 112.980,178.400 113.200 C 178.400 113.420,178.940 113.600,179.600 113.600 C 180.260 113.600,180.800 113.780,180.800 114.000 C 180.800 114.220,181.340 114.400,182.000 114.400 C 182.660 114.400,183.200 114.580,183.200 114.800 C 183.200 115.020,183.740 115.200,184.400 115.200 C 185.060 115.200,185.600 115.380,185.600 115.600 C 185.600 115.820,185.960 116.000,186.400 116.000 C 186.840 116.000,187.200 116.180,187.200 116.400 C 187.200 116.620,187.639 116.800,188.176 116.800 C 188.713 116.800,189.264 116.980,189.400 117.200 C 189.536 117.420,189.997 117.600,190.424 117.600 C 190.851 117.600,191.200 117.780,191.200 118.000 C 191.200 118.220,191.545 118.400,191.967 118.400 C 192.388 118.400,192.793 118.537,192.867 118.705 C 192.940 118.873,194.980 119.993,197.400 121.194 C 199.820 122.396,201.890 123.493,202.000 123.633 C 202.336 124.062,204.727 125.200,205.292 125.200 C 205.584 125.200,206.083 125.560,206.400 126.000 C 206.717 126.440,207.225 126.800,207.528 126.800 C 207.831 126.800,208.583 127.340,209.200 128.000 C 209.817 128.660,210.430 129.200,210.564 129.200 C 210.698 129.200,211.372 129.740,212.063 130.400 C 212.754 131.060,213.478 131.600,213.672 131.600 C 214.002 131.600,221.243 138.802,223.700 141.573 C 224.305 142.255,224.800 143.070,224.800 143.383 C 224.800 143.697,224.980 144.064,225.201 144.201 C 225.422 144.337,225.953 145.220,226.383 146.163 C 227.460 148.527,229.292 150.400,230.527 150.400 C 231.081 150.400,231.606 150.619,231.696 150.887 C 231.822 151.266,232.252 151.256,233.629 150.842 C 236.373 150.016,237.073 149.596,237.603 148.456 C 237.873 147.875,238.252 147.087,238.447 146.705 C 238.924 145.767,238.895 143.706,238.400 143.400 C 238.180 143.264,238.000 142.837,238.000 142.452 C 238.000 142.066,237.640 141.364,237.200 140.892 C 236.760 140.420,236.400 139.756,236.400 139.417 C 236.400 139.078,236.220 138.800,236.000 138.800 C 235.780 138.800,235.600 138.480,235.600 138.088 C 235.600 137.697,235.240 137.117,234.800 136.800 C 234.360 136.483,234.000 136.020,234.000 135.771 C 234.000 135.522,233.460 134.754,232.800 134.063 C 232.140 133.372,231.600 132.626,231.600 132.404 C 231.600 132.182,231.420 132.000,231.200 132.000 C 230.980 132.000,230.800 131.811,230.800 131.579 C 230.800 131.092,224.766 125.081,222.790 123.600 C 222.056 123.050,220.864 122.015,220.141 121.300 C 219.418 120.585,218.623 120.000,218.374 120.000 C 218.125 120.000,217.417 119.460,216.800 118.800 C 216.183 118.140,215.474 117.600,215.223 117.600 C 214.972 117.600,214.380 117.240,213.908 116.800 C 213.436 116.360,212.813 116.000,212.525 116.000 C 212.236 116.000,212.000 115.820,212.000 115.600 C 212.000 115.380,211.764 115.200,211.475 115.200 C 211.187 115.200,210.602 114.884,210.175 114.497 C 209.749 114.111,208.140 113.167,206.600 112.399 C 205.060 111.632,203.740 110.868,203.667 110.702 C 203.593 110.536,203.188 110.400,202.767 110.400 C 202.345 110.400,202.000 110.220,202.000 110.000 C 202.000 109.744,205.592 109.600,211.976 109.600 C 218.196 109.600,222.046 109.751,222.200 110.000 M25.600 197.600 C 25.600 197.820,25.960 198.000,26.400 198.000 C 26.840 198.000,27.200 198.180,27.200 198.400 C 27.200 198.620,27.560 198.800,28.000 198.800 C 28.440 198.800,28.800 198.980,28.800 199.200 C 28.800 199.420,29.149 199.600,29.576 199.600 C 30.003 199.600,30.464 199.780,30.600 200.000 C 30.736 200.220,31.197 200.400,31.624 200.400 C 32.051 200.400,32.400 200.580,32.400 200.800 C 32.400 201.020,32.760 201.200,33.200 201.200 C 34.517 201.200,34.119 202.275,32.000 204.439 C 30.900 205.562,30.000 206.733,30.000 207.041 C 30.000 207.348,29.847 207.600,29.660 207.600 C 29.342 207.600,27.219 211.619,26.596 213.400 C 24.857 218.375,24.806 228.939,26.514 230.647 C 26.671 230.805,26.800 231.443,26.800 232.067 C 26.800 232.690,26.938 233.200,27.106 233.200 C 27.274 233.200,27.710 233.875,28.075 234.700 C 29.072 236.952,33.736 242.400,34.667 242.400 C 34.895 242.400,35.606 242.895,36.248 243.500 C 36.889 244.105,37.906 244.855,38.507 245.168 C 39.108 245.480,39.600 245.885,39.600 246.068 C 39.600 246.250,39.960 246.400,40.400 246.400 C 40.840 246.400,41.200 246.580,41.200 246.800 C 41.200 247.020,41.560 247.200,42.000 247.200 C 42.440 247.200,42.800 247.380,42.800 247.600 C 42.800 247.820,43.070 248.000,43.400 248.000 C 43.730 248.000,44.000 248.180,44.000 248.400 C 44.000 248.620,44.450 248.800,45.000 248.800 C 45.550 248.800,46.000 248.980,46.000 249.200 C 46.000 249.420,46.439 249.600,46.976 249.600 C 47.513 249.600,48.064 249.780,48.200 250.000 C 48.336 250.220,48.887 250.400,49.424 250.400 C 49.961 250.400,50.400 250.580,50.400 250.800 C 50.400 251.020,50.929 251.200,51.576 251.200 C 52.223 251.200,52.864 251.380,53.000 251.600 C 53.136 251.820,54.047 252.000,55.024 252.000 C 56.001 252.000,56.800 252.180,56.800 252.400 C 56.800 252.620,57.664 252.800,58.720 252.800 C 59.776 252.800,60.828 252.988,61.058 253.218 C 61.887 254.047,79.200 253.227,79.200 252.360 C 79.200 252.162,79.740 252.000,80.400 252.000 C 81.060 252.000,81.600 251.820,81.600 251.600 C 81.600 251.380,81.960 251.200,82.400 251.200 C 82.840 251.200,83.200 251.020,83.200 250.800 C 83.200 250.580,83.560 250.400,84.000 250.400 C 84.440 250.400,84.800 250.220,84.800 250.000 C 84.800 249.780,85.160 249.600,85.600 249.600 C 86.222 249.600,86.400 249.867,86.400 250.800 C 86.400 251.460,86.580 252.000,86.800 252.000 C 87.020 252.000,87.200 252.362,87.200 252.805 C 87.200 253.248,87.368 253.923,87.574 254.305 C 87.779 254.687,88.183 255.585,88.471 256.300 C 88.760 257.015,89.131 257.600,89.298 257.600 C 89.464 257.600,89.600 257.870,89.600 258.200 C 89.600 258.530,89.780 258.800,90.000 258.800 C 90.220 258.800,90.400 259.160,90.400 259.600 C 90.400 260.040,90.558 260.400,90.751 260.400 C 90.945 260.400,91.341 260.976,91.633 261.679 C 92.198 263.044,98.852 270.000,99.592 270.000 C 99.835 270.000,100.420 270.360,100.892 270.800 C 101.364 271.240,101.987 271.600,102.275 271.600 C 102.564 271.600,102.800 271.780,102.800 272.000 C 102.800 272.220,103.160 272.400,103.600 272.400 C 104.040 272.400,104.400 272.580,104.400 272.800 C 104.400 273.020,104.749 273.200,105.176 273.200 C 105.603 273.200,106.064 273.380,106.200 273.600 C 106.336 273.820,106.887 274.000,107.424 274.000 C 107.961 274.000,108.400 274.166,108.400 274.368 C 108.400 274.571,109.570 274.862,111.000 275.015 C 112.430 275.168,113.600 275.452,113.600 275.647 C 113.600 275.841,114.849 276.000,116.376 276.000 C 117.903 276.000,119.264 276.180,119.400 276.400 C 119.536 276.620,121.066 276.800,122.800 276.800 C 124.534 276.800,126.064 276.620,126.200 276.400 C 126.336 276.180,127.607 276.000,129.024 276.000 C 130.475 276.000,131.600 275.825,131.600 275.600 C 131.600 275.380,132.224 275.200,132.986 275.200 C 135.376 275.200,146.400 270.563,146.400 269.557 C 146.400 269.361,146.720 269.200,147.112 269.200 C 147.503 269.200,148.083 268.840,148.400 268.400 C 148.717 267.960,149.297 267.600,149.688 267.600 C 150.080 267.600,150.400 267.420,150.400 267.200 C 150.400 266.980,150.760 266.800,151.200 266.800 C 151.640 266.800,152.000 266.980,152.000 267.200 C 152.000 267.429,153.200 267.600,154.800 267.600 C 156.400 267.600,157.600 267.771,157.600 268.000 C 157.600 268.243,159.392 268.400,162.176 268.400 C 164.796 268.400,166.858 268.571,167.000 268.800 C 167.138 269.023,168.996 269.200,171.200 269.200 C 173.404 269.200,175.262 269.023,175.400 268.800 C 175.539 268.575,177.471 268.400,179.824 268.400 C 182.341 268.400,184.000 268.241,184.000 268.000 C 184.000 267.780,184.990 267.600,186.200 267.600 C 187.410 267.600,188.400 267.420,188.400 267.200 C 188.400 266.980,189.120 266.800,190.000 266.800 C 190.880 266.800,191.600 266.620,191.600 266.400 C 191.600 266.180,192.140 266.000,192.800 266.000 C 193.460 266.000,194.000 265.820,194.000 265.600 C 194.000 265.380,194.540 265.200,195.200 265.200 C 195.860 265.200,196.400 265.020,196.400 264.800 C 196.400 264.580,196.940 264.400,197.600 264.400 C 198.260 264.400,198.800 264.220,198.800 264.000 C 198.800 263.780,199.160 263.600,199.600 263.600 C 200.040 263.600,200.400 263.420,200.400 263.200 C 200.400 262.980,200.760 262.800,201.200 262.800 C 201.640 262.800,202.000 262.620,202.000 262.400 C 202.000 262.180,202.360 262.000,202.800 262.000 C 203.240 262.000,203.600 261.820,203.600 261.600 C 203.600 261.380,204.140 261.200,204.800 261.200 C 205.460 261.200,206.000 261.380,206.000 261.600 C 206.000 261.820,206.360 262.000,206.800 262.000 C 207.240 262.000,207.600 262.180,207.600 262.400 C 207.600 262.620,207.960 262.800,208.400 262.800 C 208.840 262.800,209.200 262.980,209.200 263.200 C 209.200 263.420,209.430 263.600,209.712 263.600 C 209.993 263.600,210.483 263.960,210.800 264.400 C 211.117 264.840,211.607 265.200,211.888 265.200 C 212.170 265.200,212.400 265.380,212.400 265.600 C 212.400 265.820,212.576 266.000,212.792 266.000 C 213.218 266.000,223.200 275.774,223.200 276.191 C 223.200 277.025,231.769 284.779,232.705 284.793 C 232.983 284.797,233.568 284.980,234.005 285.200 C 234.442 285.420,235.158 285.780,235.595 286.000 C 236.032 286.220,238.282 286.400,240.595 286.400 C 243.132 286.400,244.800 286.241,244.800 286.000 C 244.800 285.780,245.340 285.600,246.000 285.600 C 246.660 285.600,247.200 285.420,247.200 285.200 C 247.200 284.980,247.560 284.800,248.000 284.800 C 248.440 284.800,248.800 284.620,248.800 284.400 C 248.800 284.180,249.077 284.000,249.415 284.000 C 250.179 284.000,257.039 277.137,257.395 276.017 C 257.537 275.568,257.802 275.200,257.984 275.200 C 258.165 275.200,258.426 274.750,258.564 274.200 C 258.702 273.650,258.966 273.200,259.150 273.200 C 259.716 273.200,264.400 277.917,264.400 278.487 C 264.400 278.782,264.760 279.283,265.200 279.600 C 265.670 279.939,266.000 280.635,266.000 281.288 C 266.000 281.900,266.180 282.400,266.400 282.400 C 266.620 282.400,266.800 282.760,266.800 283.200 C 266.800 283.640,266.980 284.000,267.200 284.000 C 267.420 284.000,267.600 284.540,267.600 285.200 C 267.600 285.860,267.759 286.400,267.953 286.400 C 268.148 286.400,268.418 286.715,268.554 287.100 C 268.689 287.485,268.905 288.025,269.034 288.300 C 269.212 288.683,268.278 288.800,265.033 288.800 C 262.478 288.800,260.800 288.959,260.800 289.200 C 260.800 289.448,258.608 289.600,255.024 289.600 C 251.604 289.600,249.146 289.763,249.000 290.000 C 248.840 290.259,240.729 290.400,225.976 290.400 C 211.059 290.400,203.200 290.262,203.200 290.000 C 203.200 289.750,200.808 289.600,196.824 289.600 C 193.004 289.600,190.348 289.440,190.200 289.200 C 190.061 288.975,188.137 288.800,185.800 288.800 C 183.463 288.800,181.539 288.625,181.400 288.400 C 181.263 288.179,179.463 288.000,177.376 288.000 C 175.125 288.000,173.600 287.838,173.600 287.600 C 173.600 287.374,172.467 287.200,171.000 287.200 C 169.533 287.200,168.400 287.026,168.400 286.800 C 168.400 286.571,167.200 286.400,165.600 286.400 C 164.000 286.400,162.800 286.229,162.800 286.000 C 162.800 285.778,161.741 285.600,160.424 285.600 C 159.117 285.600,157.936 285.420,157.800 285.200 C 157.664 284.980,156.494 284.800,155.200 284.800 C 153.906 284.800,152.736 284.620,152.600 284.400 C 152.464 284.180,151.193 284.000,149.776 284.000 C 148.325 284.000,147.200 283.825,147.200 283.600 C 147.200 283.380,146.300 283.200,145.200 283.200 C 144.100 283.200,143.200 283.020,143.200 282.800 C 143.200 282.580,142.300 282.400,141.200 282.400 C 140.100 282.400,139.200 282.220,139.200 282.000 C 139.200 281.780,138.401 281.600,137.424 281.600 C 136.447 281.600,135.536 281.420,135.400 281.200 C 135.264 280.980,134.389 280.800,133.456 280.800 C 132.523 280.800,131.589 280.637,131.380 280.439 C 131.171 280.240,130.190 279.981,129.200 279.862 C 128.210 279.744,126.410 279.447,125.200 279.203 C 123.990 278.959,122.324 278.659,121.497 278.537 C 120.671 278.415,119.895 278.155,119.774 277.958 C 119.652 277.761,118.944 277.600,118.200 277.600 C 117.456 277.600,116.736 277.420,116.600 277.200 C 116.464 276.980,115.744 276.800,115.000 276.800 C 114.256 276.800,113.548 276.639,113.426 276.442 C 113.305 276.245,112.529 275.982,111.703 275.856 C 106.681 275.091,104.400 274.613,104.400 274.326 C 104.400 274.147,103.680 274.000,102.800 274.000 C 101.920 274.000,101.200 273.820,101.200 273.600 C 101.200 273.380,100.480 273.200,99.600 273.200 C 98.720 273.200,98.000 273.020,98.000 272.800 C 98.000 272.580,97.460 272.400,96.800 272.400 C 96.140 272.400,95.600 272.220,95.600 272.000 C 95.600 271.780,95.060 271.600,94.400 271.600 C 93.740 271.600,93.200 271.420,93.200 271.200 C 93.200 270.980,92.660 270.800,92.000 270.800 C 91.340 270.800,90.800 270.620,90.800 270.400 C 90.800 270.180,90.170 270.000,89.400 270.000 C 88.630 270.000,88.000 269.820,88.000 269.600 C 88.000 269.380,87.460 269.200,86.800 269.200 C 86.140 269.200,85.600 269.020,85.600 268.800 C 85.600 268.580,85.060 268.400,84.400 268.400 C 83.740 268.400,83.200 268.220,83.200 268.000 C 83.200 267.780,82.660 267.600,82.000 267.600 C 81.340 267.600,80.800 267.420,80.800 267.200 C 80.800 266.980,80.358 266.800,79.819 266.800 C 79.279 266.800,78.334 266.598,77.719 266.350 C 77.103 266.103,76.150 265.722,75.600 265.504 C 75.050 265.285,74.287 264.948,73.905 264.753 C 73.523 264.559,72.848 264.400,72.405 264.400 C 71.962 264.400,71.600 264.220,71.600 264.000 C 71.600 263.780,71.251 263.600,70.824 263.600 C 70.397 263.600,69.936 263.420,69.800 263.200 C 69.664 262.980,69.113 262.800,68.576 262.800 C 68.039 262.800,67.600 262.620,67.600 262.400 C 67.600 262.180,67.238 262.000,66.795 262.000 C 66.352 262.000,65.587 261.792,65.095 261.538 C 63.169 260.542,62.783 260.400,62.005 260.400 C 61.562 260.400,61.200 260.258,61.200 260.085 C 61.200 259.912,60.030 259.417,58.600 258.985 C 57.170 258.553,56.000 258.065,56.000 257.900 C 56.000 257.735,55.728 257.600,55.395 257.600 C 54.807 257.600,54.382 257.433,52.505 256.462 C 52.013 256.208,51.338 256.000,51.005 256.000 C 50.672 256.000,50.400 255.820,50.400 255.600 C 50.400 255.380,50.040 255.200,49.600 255.200 C 49.160 255.200,48.800 255.020,48.800 254.800 C 48.800 254.580,48.440 254.400,48.000 254.400 C 47.560 254.400,47.200 254.220,47.200 254.000 C 47.200 253.780,46.840 253.600,46.400 253.600 C 45.960 253.600,45.600 253.420,45.600 253.200 C 45.600 252.980,45.240 252.800,44.800 252.800 C 44.360 252.800,44.000 252.620,44.000 252.400 C 44.000 252.180,43.640 252.000,43.200 252.000 C 42.760 252.000,42.400 251.864,42.400 251.698 C 42.400 251.531,41.815 251.136,41.100 250.820 C 40.385 250.503,39.451 249.920,39.025 249.522 C 38.598 249.125,38.013 248.800,37.725 248.800 C 37.436 248.800,37.200 248.620,37.200 248.400 C 37.200 248.180,36.840 248.000,36.400 248.000 C 35.960 248.000,35.600 247.820,35.600 247.600 C 35.600 247.380,35.364 247.200,35.075 247.200 C 34.787 247.200,34.164 246.840,33.692 246.400 C 33.220 245.960,32.596 245.600,32.305 245.600 C 32.014 245.600,31.517 245.240,31.200 244.800 C 30.883 244.360,30.303 244.000,29.912 244.000 C 29.520 244.000,29.200 243.841,29.200 243.646 C 29.200 243.451,28.525 242.971,27.700 242.580 C 26.875 242.189,25.723 241.358,25.140 240.734 C 24.556 240.110,23.969 239.600,23.835 239.600 C 23.356 239.600,15.390 231.362,14.832 230.291 C 14.520 229.691,14.115 229.200,13.932 229.200 C 13.750 229.200,13.600 228.840,13.600 228.400 C 13.600 227.960,13.420 227.600,13.200 227.600 C 12.980 227.600,12.800 227.330,12.800 227.000 C 12.800 226.670,12.620 226.400,12.400 226.400 C 12.180 226.400,12.000 225.860,12.000 225.200 C 12.000 224.540,11.820 224.000,11.600 224.000 C 11.358 224.000,11.200 222.267,11.200 219.600 C 11.200 216.933,11.358 215.200,11.600 215.200 C 11.820 215.200,12.000 214.660,12.000 214.000 C 12.000 213.340,12.180 212.800,12.400 212.800 C 12.620 212.800,12.800 212.440,12.800 212.000 C 12.800 211.560,12.980 211.200,13.200 211.200 C 13.420 211.200,13.600 210.840,13.600 210.400 C 13.600 209.960,13.780 209.600,14.000 209.600 C 14.220 209.600,14.400 209.422,14.400 209.205 C 14.400 208.833,15.160 207.785,16.300 206.584 C 16.575 206.294,16.800 205.952,16.800 205.824 C 16.800 205.495,24.936 197.270,25.300 197.232 C 25.465 197.214,25.600 197.380,25.600 197.600 M384.035 210.686 C 384.456 211.173,384.800 211.848,384.800 212.186 C 384.800 212.524,384.980 212.800,385.200 212.800 C 385.420 212.800,385.600 213.160,385.600 213.600 C 385.600 214.040,385.780 214.400,386.000 214.400 C 386.220 214.400,386.400 214.760,386.400 215.200 C 386.400 215.640,386.580 216.000,386.800 216.000 C 387.020 216.000,387.200 216.360,387.200 216.800 C 387.200 217.240,387.380 217.600,387.600 217.600 C 387.820 217.600,388.000 218.320,388.000 219.200 C 388.000 220.080,388.180 220.800,388.400 220.800 C 388.626 220.800,388.800 221.933,388.800 223.400 C 388.800 225.196,388.955 226.010,389.300 226.032 C 389.700 226.057,389.700 226.104,389.300 226.265 C 388.960 226.402,388.800 227.470,388.800 229.610 C 388.800 231.338,388.620 232.864,388.400 233.000 C 388.180 233.136,388.000 233.777,388.000 234.424 C 388.000 235.071,387.820 235.600,387.600 235.600 C 387.380 235.600,387.200 236.140,387.200 236.800 C 387.200 237.460,387.020 238.000,386.800 238.000 C 386.580 238.000,386.400 238.540,386.400 239.200 C 386.400 239.860,386.220 240.400,386.000 240.400 C 385.780 240.400,385.600 240.760,385.600 241.200 C 385.600 241.640,385.420 242.000,385.200 242.000 C 384.980 242.000,384.800 242.270,384.800 242.600 C 384.800 242.930,384.620 243.200,384.400 243.200 C 384.180 243.200,384.000 243.436,384.000 243.725 C 384.000 244.013,383.640 244.636,383.200 245.108 C 382.760 245.580,382.400 246.160,382.400 246.397 C 382.400 246.633,381.770 247.457,381.000 248.227 C 380.230 248.997,379.600 249.789,379.600 249.987 C 379.600 250.185,378.745 251.226,377.700 252.300 C 376.655 253.375,375.350 254.825,374.800 255.523 C 374.250 256.222,373.567 256.794,373.282 256.796 C 372.997 256.798,372.330 257.205,371.801 257.700 C 370.214 259.184,369.679 259.581,368.615 260.066 C 368.057 260.320,367.600 260.667,367.600 260.837 C 367.600 261.007,367.262 261.253,366.849 261.384 C 366.436 261.516,365.581 262.067,364.949 262.611 C 364.317 263.154,363.575 263.599,363.300 263.600 C 363.025 263.600,362.800 263.780,362.800 264.000 C 362.800 264.220,362.440 264.400,362.000 264.400 C 361.560 264.400,361.200 264.580,361.200 264.800 C 361.200 265.020,360.930 265.200,360.600 265.200 C 360.270 265.200,360.000 265.380,360.000 265.600 C 360.000 265.820,359.730 266.000,359.400 266.000 C 359.070 266.000,358.800 266.180,358.800 266.400 C 358.800 266.620,358.451 266.800,358.024 266.800 C 357.597 266.800,357.136 266.980,357.000 267.200 C 356.864 267.420,356.403 267.600,355.976 267.600 C 355.549 267.600,355.200 267.780,355.200 268.000 C 355.200 268.220,354.840 268.400,354.400 268.400 C 353.960 268.400,353.600 268.580,353.600 268.800 C 353.600 269.020,353.240 269.200,352.800 269.200 C 352.360 269.200,352.000 269.380,352.000 269.600 C 352.000 269.820,351.640 270.000,351.200 270.000 C 350.760 270.000,350.400 270.180,350.400 270.400 C 350.400 270.620,350.040 270.800,349.600 270.800 C 349.160 270.800,348.800 270.980,348.800 271.200 C 348.800 271.420,348.440 271.600,348.000 271.600 C 347.560 271.600,347.200 271.780,347.200 272.000 C 347.200 272.220,346.660 272.400,346.000 272.400 C 345.340 272.400,344.800 272.580,344.800 272.800 C 344.800 273.020,344.350 273.200,343.800 273.200 C 343.250 273.200,342.800 273.380,342.800 273.600 C 342.800 273.820,342.260 274.000,341.600 274.000 C 340.940 274.000,340.400 274.180,340.400 274.400 C 340.400 274.620,340.085 274.799,339.700 274.798 C 338.952 274.796,335.457 275.865,334.305 276.448 C 333.923 276.642,333.169 276.800,332.629 276.800 C 332.089 276.800,331.536 276.980,331.400 277.200 C 331.264 277.420,330.634 277.600,330.000 277.600 C 329.366 277.600,328.736 277.780,328.600 278.000 C 328.464 278.220,327.733 278.400,326.976 278.400 C 326.219 278.400,325.600 278.560,325.600 278.756 C 325.600 278.952,324.970 279.222,324.200 279.356 C 323.430 279.490,322.170 279.710,321.400 279.844 C 320.630 279.978,320.000 280.248,320.000 280.444 C 320.000 280.640,319.291 280.800,318.424 280.800 C 317.557 280.800,316.736 280.980,316.600 281.200 C 316.464 281.420,315.553 281.600,314.576 281.600 C 313.599 281.600,312.800 281.780,312.800 282.000 C 312.800 282.220,311.990 282.400,311.000 282.400 C 310.010 282.400,309.200 282.580,309.200 282.800 C 309.200 283.020,308.480 283.200,307.600 283.200 C 306.267 283.200,306.000 283.067,306.000 282.400 C 306.000 281.960,306.180 281.600,306.400 281.600 C 306.620 281.600,306.800 281.060,306.800 280.400 C 306.800 279.740,306.960 279.200,307.156 279.200 C 308.435 279.200,309.189 259.335,307.940 258.563 C 307.753 258.447,307.600 257.902,307.600 257.350 C 307.600 256.799,307.445 256.044,307.255 255.674 C 306.392 253.987,306.357 252.800,307.169 252.800 C 307.600 252.800,308.064 252.620,308.200 252.400 C 308.336 252.180,308.887 252.000,309.424 252.000 C 309.961 252.000,310.400 251.820,310.400 251.600 C 310.400 251.380,310.839 251.200,311.376 251.200 C 311.913 251.200,312.464 251.020,312.600 250.800 C 312.736 250.580,313.197 250.400,313.624 250.400 C 314.051 250.400,314.400 250.220,314.400 250.000 C 314.400 249.780,314.940 249.600,315.600 249.600 C 316.260 249.600,316.800 249.420,316.800 249.200 C 316.800 248.980,317.149 248.800,317.576 248.800 C 318.003 248.800,318.464 248.620,318.600 248.400 C 318.736 248.180,319.366 248.000,320.000 248.000 C 320.634 248.000,321.264 247.820,321.400 247.600 C 321.536 247.380,322.076 247.200,322.600 247.200 C 323.124 247.200,323.664 247.020,323.800 246.800 C 323.936 246.580,324.847 246.400,325.824 246.400 C 326.801 246.400,327.600 246.220,327.600 246.000 C 327.600 245.754,329.600 245.600,332.800 245.600 C 336.000 245.600,338.000 245.754,338.000 246.000 C 338.000 246.220,338.540 246.400,339.200 246.400 C 339.860 246.400,340.400 246.580,340.400 246.800 C 340.400 247.020,340.760 247.200,341.200 247.200 C 341.640 247.200,342.000 247.380,342.000 247.600 C 342.000 247.820,342.179 248.000,342.397 248.000 C 342.616 248.000,343.892 249.080,345.232 250.400 C 346.573 251.720,347.924 252.800,348.235 252.800 C 348.546 252.800,348.800 252.980,348.800 253.200 C 348.800 253.420,349.149 253.600,349.576 253.600 C 350.003 253.600,350.464 253.780,350.600 254.000 C 350.742 254.231,352.871 254.400,355.624 254.400 C 358.541 254.400,360.400 254.244,360.400 254.000 C 360.400 253.780,360.816 253.600,361.325 253.600 C 361.833 253.600,362.636 253.240,363.108 252.800 C 363.580 252.360,364.204 252.000,364.495 252.000 C 364.786 252.000,365.283 251.640,365.600 251.200 C 365.917 250.760,366.431 250.400,366.741 250.400 C 367.052 250.400,367.597 250.084,367.953 249.697 C 368.309 249.311,369.095 248.740,369.700 248.430 C 370.305 248.119,370.800 247.715,370.800 247.532 C 370.800 247.350,371.070 247.200,371.400 247.200 C 371.730 247.200,372.000 247.020,372.000 246.800 C 372.000 246.580,372.230 246.400,372.512 246.400 C 372.793 246.400,373.283 246.040,373.600 245.600 C 373.917 245.160,374.325 244.800,374.507 244.800 C 375.120 244.800,378.400 241.294,378.400 240.639 C 378.400 240.281,378.623 239.632,378.896 239.195 C 379.291 238.562,379.291 238.238,378.896 237.605 C 378.623 237.168,378.400 236.482,378.400 236.081 C 378.400 235.679,378.040 234.964,377.600 234.492 C 377.160 234.020,376.800 233.356,376.800 233.017 C 376.800 232.678,376.620 232.400,376.400 232.400 C 376.180 232.400,376.000 232.130,376.000 231.800 C 376.000 231.470,375.820 231.200,375.600 231.200 C 374.913 231.200,375.162 230.204,376.000 229.600 C 376.440 229.283,376.800 228.703,376.800 228.312 C 376.800 227.920,376.980 227.600,377.200 227.600 C 377.420 227.600,377.600 227.060,377.600 226.400 C 377.600 225.740,377.780 225.200,378.000 225.200 C 378.220 225.200,378.400 224.480,378.400 223.600 C 378.400 222.720,378.580 222.000,378.800 222.000 C 379.026 222.000,379.200 220.867,379.200 219.400 C 379.200 217.933,379.026 216.800,378.800 216.800 C 378.580 216.800,378.400 215.900,378.400 214.800 C 378.400 213.700,378.220 212.800,378.000 212.800 C 377.780 212.800,377.600 212.260,377.600 211.600 C 377.600 210.940,377.420 210.400,377.200 210.400 C 376.980 210.400,376.800 209.950,376.800 209.400 C 376.800 208.850,376.620 208.400,376.400 208.400 C 376.180 208.400,376.000 208.117,376.000 207.771 C 376.000 207.426,375.730 206.873,375.400 206.543 C 375.070 206.213,374.800 205.776,374.800 205.571 C 374.800 205.367,375.070 205.200,375.400 205.200 C 375.730 205.200,376.000 205.033,376.000 204.828 C 376.000 202.858,379.447 205.371,384.035 210.686 M48.971 207.954 C 49.092 208.148,49.998 208.429,50.986 208.577 C 51.973 208.725,52.886 209.016,53.014 209.223 C 53.142 209.430,53.687 209.600,54.224 209.600 C 54.761 209.600,55.200 209.780,55.200 210.000 C 55.200 210.220,55.740 210.400,56.400 210.400 C 57.060 210.400,57.600 210.580,57.600 210.800 C 57.600 211.020,58.050 211.200,58.600 211.200 C 59.150 211.200,59.600 211.380,59.600 211.600 C 59.600 211.820,60.140 212.000,60.800 212.000 C 61.460 212.000,62.000 212.180,62.000 212.400 C 62.000 212.620,62.439 212.800,62.976 212.800 C 63.513 212.800,64.064 212.980,64.200 213.200 C 64.336 213.420,64.797 213.600,65.224 213.600 C 65.651 213.600,66.000 213.780,66.000 214.000 C 66.000 214.220,66.540 214.400,67.200 214.400 C 67.860 214.400,68.400 214.580,68.400 214.800 C 68.400 215.020,68.940 215.200,69.600 215.200 C 70.260 215.200,70.800 215.380,70.800 215.600 C 70.800 215.820,71.419 216.000,72.176 216.000 C 72.933 216.000,73.664 216.180,73.800 216.400 C 73.936 216.620,74.476 216.800,75.000 216.800 C 75.524 216.800,76.064 216.980,76.200 217.200 C 76.336 217.420,76.876 217.600,77.400 217.600 C 77.924 217.600,78.464 217.780,78.600 218.000 C 78.736 218.220,79.366 218.400,80.000 218.400 C 80.634 218.400,81.264 218.580,81.400 218.800 C 81.536 219.020,82.177 219.200,82.824 219.200 C 83.471 219.200,84.000 219.380,84.000 219.600 C 84.000 219.820,84.540 220.000,85.200 220.000 C 85.860 220.000,86.400 220.160,86.400 220.356 C 86.400 220.552,87.030 220.822,87.800 220.956 C 88.570 221.090,89.818 221.308,90.573 221.441 C 91.328 221.573,92.029 221.899,92.132 222.166 C 92.398 222.861,91.972 224.800,91.553 224.800 C 91.359 224.800,91.200 225.070,91.200 225.400 C 91.200 225.730,91.020 226.000,90.800 226.000 C 90.580 226.000,90.400 226.270,90.400 226.600 C 90.400 226.930,90.220 227.200,90.000 227.200 C 89.780 227.200,89.600 227.430,89.600 227.712 C 89.600 227.993,89.240 228.483,88.800 228.800 C 88.360 229.117,88.000 229.609,88.000 229.892 C 88.000 230.175,87.460 230.972,86.800 231.663 C 86.140 232.354,85.600 233.075,85.600 233.267 C 85.600 233.822,80.469 238.800,79.896 238.800 C 79.610 238.800,79.117 239.160,78.800 239.600 C 78.483 240.040,77.914 240.400,77.535 240.400 C 77.157 240.400,76.746 240.564,76.622 240.764 C 75.811 242.076,58.000 242.059,58.000 240.747 C 58.000 240.556,57.370 240.400,56.600 240.400 C 55.830 240.400,55.200 240.220,55.200 240.000 C 55.200 239.780,54.660 239.600,54.000 239.600 C 53.340 239.600,52.800 239.420,52.800 239.200 C 52.800 238.980,52.440 238.800,52.000 238.800 C 51.560 238.800,51.200 238.620,51.200 238.400 C 51.200 238.180,50.660 238.000,50.000 238.000 C 49.340 238.000,48.800 237.820,48.800 237.600 C 48.800 237.380,48.480 237.200,48.088 237.200 C 47.697 237.200,47.117 236.840,46.800 236.400 C 46.483 235.960,45.943 235.600,45.600 235.600 C 45.257 235.600,44.717 235.240,44.400 234.800 C 44.083 234.360,43.548 233.998,43.212 233.996 C 42.875 233.994,42.150 233.423,41.600 232.726 C 41.050 232.029,40.420 231.266,40.200 231.030 C 39.980 230.793,39.545 230.105,39.232 229.500 C 38.920 228.895,38.515 228.400,38.332 228.400 C 38.150 228.400,38.000 227.961,38.000 227.424 C 38.000 226.887,37.820 226.336,37.600 226.200 C 37.054 225.862,37.093 219.904,37.651 218.519 C 39.191 214.694,39.941 213.484,42.489 210.720 C 44.300 208.756,48.389 207.011,48.971 207.954 M364.800 212.400 C 365.073 213.060,365.455 213.600,365.649 213.600 C 365.842 213.600,366.000 213.960,366.000 214.400 C 366.000 214.840,366.180 215.200,366.400 215.200 C 366.620 215.200,366.800 215.740,366.800 216.400 C 366.800 217.060,366.980 217.600,367.200 217.600 C 367.420 217.600,367.600 218.320,367.600 219.200 C 367.600 220.080,367.420 220.800,367.200 220.800 C 366.980 220.800,366.800 221.160,366.800 221.600 C 366.800 222.133,366.533 222.400,366.000 222.400 C 365.560 222.400,365.200 222.220,365.200 222.000 C 365.200 221.780,364.840 221.600,364.400 221.600 C 363.960 221.600,363.600 221.420,363.600 221.200 C 363.600 220.980,363.240 220.800,362.800 220.800 C 362.360 220.800,362.000 220.620,362.000 220.400 C 362.000 220.180,361.460 220.000,360.800 220.000 C 360.140 220.000,359.600 219.820,359.600 219.600 C 359.600 219.380,359.161 219.200,358.624 219.200 C 358.087 219.200,357.536 219.020,357.400 218.800 C 357.264 218.580,356.364 218.400,355.400 218.400 C 354.436 218.400,353.536 218.220,353.400 218.000 C 353.264 217.780,351.633 217.600,349.776 217.600 C 347.792 217.600,346.400 217.435,346.400 217.200 C 346.400 216.980,346.940 216.800,347.600 216.800 C 348.260 216.800,348.800 216.620,348.800 216.400 C 348.800 216.180,349.340 216.000,350.000 216.000 C 350.660 216.000,351.200 215.820,351.200 215.600 C 351.200 215.380,351.639 215.200,352.176 215.200 C 352.713 215.200,353.264 215.020,353.400 214.800 C 353.536 214.580,354.076 214.400,354.600 214.400 C 355.124 214.400,355.664 214.220,355.800 214.000 C 355.936 213.780,356.397 213.600,356.824 213.600 C 357.251 213.600,357.600 213.420,357.600 213.200 C 357.600 212.980,358.050 212.800,358.600 212.800 C 359.150 212.800,359.600 212.620,359.600 212.400 C 359.600 212.180,359.960 212.000,360.400 212.000 C 360.840 212.000,361.200 211.820,361.200 211.600 C 361.200 210.508,364.302 211.198,364.800 212.400 M106.000 225.600 C 106.000 225.820,106.720 226.000,107.600 226.000 C 109.157 226.000,109.818 226.771,108.800 227.400 C 108.580 227.536,108.400 227.957,108.400 228.335 C 108.400 228.714,108.040 229.283,107.600 229.600 C 107.160 229.917,106.800 230.497,106.800 230.888 C 106.800 231.280,106.650 231.600,106.468 231.600 C 106.285 231.600,105.880 232.095,105.568 232.700 C 105.255 233.305,104.685 234.149,104.300 234.575 C 103.915 235.002,103.600 235.587,103.600 235.875 C 103.600 236.164,103.420 236.400,103.200 236.400 C 102.980 236.400,102.800 236.720,102.800 237.112 C 102.800 237.503,102.440 238.083,102.000 238.400 C 101.560 238.717,101.200 239.257,101.200 239.600 C 101.200 239.943,100.840 240.483,100.400 240.800 C 99.960 241.117,99.600 241.697,99.600 242.088 C 99.600 242.480,99.420 242.800,99.200 242.800 C 98.980 242.800,98.800 243.790,98.800 245.000 C 98.800 246.210,98.980 247.200,99.200 247.200 C 99.420 247.200,99.600 247.478,99.600 247.818 C 99.600 248.618,101.382 250.400,102.182 250.400 C 102.522 250.400,102.800 250.580,102.800 250.800 C 102.800 251.020,103.160 251.200,103.600 251.200 C 104.040 251.200,104.400 251.380,104.400 251.600 C 104.400 251.820,104.760 252.000,105.200 252.000 C 105.640 252.000,106.000 252.180,106.000 252.400 C 106.000 252.620,106.360 252.800,106.800 252.800 C 107.240 252.800,107.600 252.980,107.600 253.200 C 107.600 253.420,107.960 253.600,108.400 253.600 C 108.840 253.600,109.200 253.780,109.200 254.000 C 109.200 254.220,109.549 254.400,109.976 254.400 C 110.403 254.400,110.864 254.580,111.000 254.800 C 111.136 255.020,111.597 255.200,112.024 255.200 C 112.451 255.200,112.800 255.341,112.800 255.513 C 112.800 255.685,113.629 256.070,114.642 256.369 C 115.655 256.668,117.165 257.242,117.998 257.645 C 118.831 258.047,120.257 258.496,121.165 258.641 C 122.074 258.786,122.914 259.061,123.032 259.253 C 123.151 259.444,123.676 259.600,124.200 259.600 C 124.724 259.600,125.264 259.780,125.400 260.000 C 125.536 260.220,126.087 260.400,126.624 260.400 C 127.161 260.400,127.600 260.580,127.600 260.800 C 127.600 261.020,128.140 261.200,128.800 261.200 C 129.460 261.200,130.000 261.380,130.000 261.600 C 130.000 261.820,130.540 262.000,131.200 262.000 C 132.133 262.000,132.400 262.178,132.400 262.800 C 132.400 263.419,132.133 263.600,131.224 263.600 C 130.577 263.600,129.936 263.780,129.800 264.000 C 129.664 264.220,128.663 264.400,127.576 264.400 C 126.489 264.400,125.600 264.580,125.600 264.800 C 125.600 265.033,124.275 265.200,122.424 265.200 C 120.677 265.200,119.136 265.020,119.000 264.800 C 118.864 264.580,117.953 264.400,116.976 264.400 C 115.999 264.400,115.200 264.220,115.200 264.000 C 115.200 263.780,114.660 263.600,114.000 263.600 C 113.340 263.600,112.800 263.420,112.800 263.200 C 112.800 262.980,112.524 262.800,112.187 262.800 C 110.594 262.800,104.474 258.874,103.220 257.048 C 102.900 256.582,102.134 255.723,101.519 255.140 C 100.903 254.556,100.400 253.791,100.400 253.440 C 100.400 253.088,100.220 252.800,100.000 252.800 C 99.780 252.800,99.600 252.440,99.600 252.000 C 99.600 251.560,99.420 251.200,99.200 251.200 C 98.980 251.200,98.800 250.840,98.800 250.400 C 98.800 249.960,98.620 249.600,98.400 249.600 C 98.180 249.600,98.000 249.060,98.000 248.400 C 98.000 247.740,97.820 247.200,97.600 247.200 C 97.380 247.200,97.200 246.570,97.200 245.800 C 97.200 245.030,97.020 244.400,96.800 244.400 C 95.497 244.400,96.552 238.197,98.100 236.757 C 98.485 236.399,98.800 235.852,98.800 235.541 C 98.800 235.231,99.160 234.717,99.600 234.400 C 100.040 234.083,100.400 233.543,100.400 233.200 C 100.400 232.857,100.760 232.317,101.200 232.000 C 101.640 231.683,102.000 231.103,102.000 230.712 C 102.000 230.320,102.180 230.000,102.400 230.000 C 102.620 230.000,102.800 229.640,102.800 229.200 C 102.800 228.760,102.980 228.400,103.200 228.400 C 103.420 228.400,103.600 228.040,103.600 227.600 C 103.600 227.160,103.768 226.800,103.973 226.800 C 104.178 226.800,104.460 226.440,104.600 226.000 C 104.857 225.190,106.000 224.863,106.000 225.600 M123.200 229.600 C 123.200 229.820,123.920 230.000,124.800 230.000 C 125.680 230.000,126.400 230.180,126.400 230.400 C 126.400 230.620,127.199 230.800,128.176 230.800 C 129.153 230.800,130.064 230.980,130.200 231.200 C 130.336 231.420,131.247 231.600,132.224 231.600 C 133.201 231.600,134.000 231.780,134.000 232.000 C 134.000 232.220,134.900 232.400,136.000 232.400 C 137.100 232.400,138.000 232.580,138.000 232.800 C 138.000 233.022,139.067 233.200,140.400 233.200 C 141.733 233.200,142.800 233.378,142.800 233.600 C 142.800 233.820,143.689 234.000,144.776 234.000 C 145.863 234.000,146.864 234.180,147.000 234.400 C 147.136 234.620,148.317 234.800,149.624 234.800 C 150.941 234.800,152.000 234.978,152.000 235.200 C 152.000 235.429,153.200 235.600,154.800 235.600 C 156.400 235.600,157.600 235.771,157.600 236.000 C 157.600 236.225,158.725 236.400,160.176 236.400 C 161.593 236.400,162.864 236.580,163.000 236.800 C 163.137 237.021,164.937 237.200,167.024 237.200 C 169.165 237.200,170.800 237.366,170.800 237.583 C 170.800 238.292,202.649 238.775,211.193 238.196 L 214.987 237.938 212.393 240.417 C 210.967 241.780,209.170 243.366,208.400 243.943 C 207.630 244.519,206.709 245.308,206.353 245.696 C 205.997 246.083,205.501 246.400,205.249 246.400 C 204.998 246.400,204.228 246.940,203.537 247.600 C 202.846 248.260,202.038 248.800,201.741 248.800 C 201.443 248.800,201.200 248.980,201.200 249.200 C 201.200 249.420,200.964 249.600,200.675 249.600 C 200.387 249.600,199.764 249.960,199.292 250.400 C 198.820 250.840,198.156 251.200,197.817 251.200 C 197.478 251.200,197.200 251.380,197.200 251.600 C 197.200 251.820,196.840 252.000,196.400 252.000 C 195.960 252.000,195.600 252.180,195.600 252.400 C 195.600 252.620,195.150 252.800,194.600 252.800 C 194.050 252.800,193.600 252.980,193.600 253.200 C 193.600 253.420,193.240 253.600,192.800 253.600 C 192.360 253.600,192.000 253.780,192.000 254.000 C 192.000 254.220,191.460 254.400,190.800 254.400 C 190.140 254.400,189.600 254.580,189.600 254.800 C 189.600 255.020,188.880 255.200,188.000 255.200 C 187.120 255.200,186.400 255.380,186.400 255.600 C 186.400 255.820,185.680 256.000,184.800 256.000 C 183.920 256.000,183.200 256.180,183.200 256.400 C 183.200 256.631,181.933 256.800,180.200 256.800 C 178.467 256.800,177.200 256.969,177.200 257.200 C 177.200 257.449,174.933 257.600,171.200 257.600 C 167.467 257.600,165.200 257.449,165.200 257.200 C 165.200 256.963,163.733 256.800,161.600 256.800 C 159.467 256.800,158.000 256.637,158.000 256.400 C 158.000 256.180,157.021 256.000,155.824 256.000 C 154.627 256.000,153.536 255.820,153.400 255.600 C 153.264 255.380,152.353 255.200,151.376 255.200 C 150.399 255.200,149.600 255.020,149.600 254.800 C 149.600 254.580,148.880 254.400,148.000 254.400 C 147.120 254.400,146.400 254.220,146.400 254.000 C 146.400 253.780,145.680 253.600,144.800 253.600 C 143.920 253.600,143.200 253.420,143.200 253.200 C 143.200 252.980,142.491 252.800,141.624 252.800 C 140.757 252.800,139.936 252.620,139.800 252.400 C 139.664 252.180,139.023 252.000,138.376 252.000 C 137.729 252.000,137.200 251.820,137.200 251.600 C 137.200 251.380,136.660 251.200,136.000 251.200 C 135.340 251.200,134.800 251.020,134.800 250.800 C 134.800 250.580,134.260 250.400,133.600 250.400 C 132.940 250.400,132.400 250.220,132.400 250.000 C 132.400 249.780,131.860 249.600,131.200 249.600 C 130.540 249.600,130.000 249.420,130.000 249.200 C 130.000 248.980,129.460 248.800,128.800 248.800 C 128.140 248.800,127.600 248.620,127.600 248.400 C 127.600 248.180,127.060 248.000,126.400 248.000 C 125.740 248.000,125.200 247.820,125.200 247.600 C 125.200 247.380,124.840 247.200,124.400 247.200 C 123.960 247.200,123.600 247.020,123.600 246.800 C 123.600 246.580,123.238 246.400,122.795 246.400 C 122.352 246.400,121.587 246.192,121.095 245.938 C 119.218 244.967,118.793 244.800,118.205 244.800 C 117.872 244.800,117.600 244.620,117.600 244.400 C 117.600 244.180,117.390 244.000,117.134 244.000 C 116.184 244.000,113.600 242.628,113.600 242.123 C 113.600 241.835,113.780 241.600,114.000 241.600 C 114.220 241.600,114.400 241.370,114.400 241.088 C 114.400 240.807,114.760 240.317,115.200 240.000 C 115.640 239.683,116.000 239.143,116.000 238.800 C 116.000 238.457,116.360 237.917,116.800 237.600 C 117.240 237.283,117.600 236.743,117.600 236.400 C 117.600 236.057,117.960 235.517,118.400 235.200 C 118.840 234.883,119.200 234.386,119.200 234.095 C 119.200 233.804,119.560 233.180,120.000 232.708 C 120.440 232.236,120.800 231.613,120.800 231.325 C 120.800 231.036,120.968 230.800,121.173 230.800 C 121.378 230.800,121.660 230.440,121.800 230.000 C 122.057 229.190,123.200 228.863,123.200 229.600 M352.000 229.600 C 352.000 229.820,352.720 230.000,353.600 230.000 C 354.480 230.000,355.200 230.180,355.200 230.400 C 355.200 230.620,355.740 230.800,356.400 230.800 C 357.060 230.800,357.600 230.980,357.600 231.200 C 357.600 231.420,357.836 231.600,358.125 231.600 C 358.413 231.600,359.036 231.960,359.508 232.400 C 359.980 232.840,360.459 233.200,360.573 233.200 C 360.686 233.200,361.593 233.954,362.589 234.876 C 364.419 236.569,364.949 238.000,363.747 238.000 C 363.388 238.000,362.803 238.316,362.447 238.703 C 362.091 239.089,361.305 239.660,360.700 239.970 C 360.095 240.281,359.600 240.685,359.600 240.868 C 359.600 241.050,359.330 241.200,359.000 241.200 C 358.670 241.200,358.400 241.342,358.400 241.517 C 358.400 241.691,357.775 242.116,357.012 242.463 C 355.414 243.187,355.058 243.025,352.269 240.320 C 351.408 239.484,350.495 238.800,350.240 238.800 C 349.985 238.800,349.517 238.440,349.200 238.000 C 348.883 237.560,348.303 237.200,347.912 237.200 C 347.520 237.200,347.200 237.020,347.200 236.800 C 347.200 236.580,346.840 236.400,346.400 236.400 C 345.960 236.400,345.600 236.220,345.600 236.000 C 345.600 235.780,345.060 235.600,344.400 235.600 C 343.740 235.600,343.200 235.420,343.200 235.200 C 343.200 234.980,342.480 234.800,341.600 234.800 C 340.720 234.800,340.000 234.620,340.000 234.400 C 340.000 234.154,337.992 234.000,334.776 234.000 C 331.396 234.000,329.640 233.859,329.800 233.600 C 329.936 233.380,330.577 233.200,331.224 233.200 C 331.871 233.200,332.400 233.020,332.400 232.800 C 332.400 232.580,332.940 232.400,333.600 232.400 C 334.260 232.400,334.800 232.220,334.800 232.000 C 334.800 231.780,335.419 231.600,336.176 231.600 C 336.933 231.600,337.664 231.420,337.800 231.200 C 337.936 230.980,338.577 230.800,339.224 230.800 C 339.871 230.800,340.400 230.620,340.400 230.400 C 340.400 230.180,341.199 230.000,342.176 230.000 C 343.153 230.000,344.064 229.820,344.200 229.600 C 344.337 229.379,346.137 229.200,348.224 229.200 C 350.475 229.200,352.000 229.362,352.000 229.600 M289.600 230.400 C 289.600 230.620,289.960 230.800,290.400 230.800 C 290.840 230.800,291.200 230.946,291.200 231.125 C 291.200 231.304,291.830 231.698,292.600 232.000 C 293.370 232.302,294.000 232.696,294.000 232.875 C 294.000 233.054,294.540 233.200,295.200 233.200 C 295.860 233.200,296.400 233.380,296.400 233.600 C 296.400 233.820,296.839 234.000,297.376 234.000 C 297.913 234.000,298.464 234.180,298.600 234.400 C 298.736 234.620,299.557 234.800,300.424 234.800 C 301.291 234.800,302.000 234.980,302.000 235.200 C 302.000 235.433,303.333 235.600,305.200 235.600 C 307.067 235.600,308.400 235.767,308.400 236.000 C 308.400 236.235,309.792 236.400,311.776 236.400 C 313.633 236.400,315.264 236.220,315.400 236.000 C 315.536 235.780,316.447 235.600,317.424 235.600 C 318.401 235.600,319.200 235.780,319.200 236.000 C 319.200 236.220,318.480 236.400,317.600 236.400 C 316.720 236.400,316.000 236.580,316.000 236.800 C 316.000 237.020,315.561 237.200,315.024 237.200 C 314.487 237.200,313.936 237.380,313.800 237.600 C 313.664 237.820,313.203 238.000,312.776 238.000 C 312.349 238.000,312.000 238.180,312.000 238.400 C 312.000 238.620,311.561 238.800,311.024 238.800 C 310.487 238.800,309.936 238.980,309.800 239.200 C 309.664 239.420,309.113 239.600,308.576 239.600 C 308.039 239.600,307.600 239.780,307.600 240.000 C 307.600 240.220,307.060 240.400,306.400 240.400 C 305.740 240.400,305.200 240.580,305.200 240.800 C 305.200 241.020,304.690 241.200,304.067 241.200 C 303.443 241.200,302.805 241.329,302.647 241.486 C 300.136 243.997,276.639 245.050,273.790 242.778 C 273.565 242.599,272.440 242.327,271.290 242.174 C 270.141 242.022,269.200 241.740,269.200 241.548 C 269.200 241.357,268.660 241.200,268.000 241.200 C 267.340 241.200,266.800 241.020,266.800 240.800 C 266.800 240.580,266.440 240.400,266.000 240.400 C 265.560 240.400,265.200 240.220,265.200 240.000 C 265.200 239.780,264.840 239.600,264.400 239.600 C 263.960 239.600,263.600 239.420,263.600 239.200 C 263.600 238.980,263.240 238.800,262.800 238.800 C 262.360 238.800,262.000 238.620,262.000 238.400 C 262.000 238.180,261.640 238.000,261.200 238.000 C 260.760 238.000,260.400 237.820,260.400 237.600 C 260.400 237.380,260.040 237.200,259.600 237.200 C 259.160 237.200,258.800 237.020,258.800 236.800 C 258.800 236.580,258.612 236.400,258.383 236.400 C 258.154 236.400,257.580 236.040,257.108 235.600 L 256.249 234.800 258.325 234.800 C 259.466 234.800,260.400 234.620,260.400 234.400 C 260.400 234.169,261.659 234.000,263.376 234.000 C 265.013 234.000,266.464 233.820,266.600 233.600 C 266.736 233.380,268.187 233.200,269.824 233.200 C 271.541 233.200,272.800 233.031,272.800 232.800 C 272.800 232.578,273.867 232.400,275.200 232.400 C 276.533 232.400,277.600 232.222,277.600 232.000 C 277.600 231.771,278.800 231.600,280.400 231.600 C 282.000 231.600,283.200 231.429,283.200 231.200 C 283.200 230.978,284.267 230.800,285.600 230.800 C 286.933 230.800,288.000 230.622,288.000 230.400 C 288.000 230.180,288.360 230.000,288.800 230.000 C 289.240 230.000,289.600 230.180,289.600 230.400 M240.656 237.907 C 241.510 238.735,242.926 239.948,243.804 240.602 C 244.682 241.256,245.691 242.108,246.047 242.496 C 246.403 242.883,246.948 243.200,247.259 243.200 C 247.569 243.200,248.083 243.560,248.400 244.000 C 248.717 244.440,249.257 244.800,249.600 244.800 C 249.943 244.800,250.483 245.160,250.800 245.600 C 251.117 246.040,251.697 246.400,252.088 246.400 C 252.480 246.400,252.800 246.580,252.800 246.800 C 252.800 247.020,253.160 247.200,253.600 247.200 C 254.040 247.200,254.400 247.380,254.400 247.600 C 254.400 247.820,254.720 248.000,255.112 248.000 C 255.503 248.000,256.083 248.360,256.400 248.800 C 256.717 249.240,257.286 249.600,257.665 249.600 C 258.043 249.600,258.464 249.780,258.600 250.000 C 258.736 250.220,259.197 250.400,259.624 250.400 C 260.051 250.400,260.400 250.580,260.400 250.800 C 260.400 251.020,260.672 251.200,261.005 251.200 C 261.338 251.200,261.968 251.380,262.405 251.600 C 262.842 251.820,263.558 252.180,263.995 252.400 C 264.432 252.620,265.242 252.800,265.795 252.800 C 266.348 252.800,266.800 252.980,266.800 253.200 C 266.800 253.420,267.340 253.600,268.000 253.600 C 268.660 253.600,269.200 253.780,269.200 254.000 C 269.200 254.220,269.920 254.400,270.800 254.400 C 271.680 254.400,272.400 254.580,272.400 254.800 C 272.400 255.020,273.264 255.200,274.320 255.200 C 275.376 255.200,276.427 255.387,276.656 255.616 C 276.919 255.879,280.337 256.033,285.936 256.034 C 294.370 256.036,294.800 256.073,294.800 256.795 C 294.800 257.212,294.980 257.664,295.200 257.800 C 295.420 257.936,295.600 258.397,295.600 258.824 C 295.600 259.251,295.780 259.600,296.000 259.600 C 296.220 259.600,296.400 260.489,296.400 261.576 C 296.400 262.663,296.580 263.664,296.800 263.800 C 297.020 263.936,297.200 265.567,297.200 267.424 C 297.200 269.408,297.035 270.800,296.800 270.800 C 296.580 270.800,296.400 271.700,296.400 272.800 C 296.400 273.900,296.220 274.800,296.000 274.800 C 295.780 274.800,295.600 275.143,295.600 275.562 C 295.600 277.296,292.094 282.400,290.903 282.400 C 290.626 282.400,290.400 282.580,290.400 282.800 C 290.400 283.020,289.961 283.200,289.424 283.200 C 288.887 283.200,288.336 283.380,288.200 283.600 C 288.064 283.820,286.883 284.000,285.576 284.000 C 284.259 284.000,283.200 283.822,283.200 283.600 C 283.200 283.380,282.744 283.200,282.187 283.200 C 280.695 283.200,277.600 279.830,277.600 278.205 C 277.600 277.872,277.420 277.600,277.200 277.600 C 276.980 277.600,276.800 277.150,276.800 276.600 C 276.800 276.050,276.620 275.600,276.400 275.600 C 276.180 275.600,276.000 275.240,276.000 274.800 C 276.000 274.360,275.855 274.000,275.677 274.000 C 275.499 274.000,275.036 273.280,274.648 272.400 C 274.260 271.520,273.775 270.800,273.571 270.800 C 273.367 270.800,273.200 270.521,273.200 270.179 C 273.200 269.550,263.871 260.000,263.257 260.000 C 262.963 260.000,262.358 259.560,260.517 258.007 C 260.251 257.783,259.768 257.600,259.444 257.600 C 259.119 257.600,258.740 257.240,258.600 256.800 C 258.460 256.360,258.088 256.000,257.773 256.000 C 257.458 256.000,257.200 255.820,257.200 255.600 C 257.200 255.380,257.012 255.200,256.783 255.200 C 256.554 255.200,255.980 254.840,255.508 254.400 C 255.036 253.960,254.413 253.600,254.125 253.600 C 253.836 253.600,253.600 253.420,253.600 253.200 C 253.600 252.980,253.240 252.800,252.800 252.800 C 252.360 252.800,252.000 252.620,252.000 252.400 C 252.000 252.180,251.651 252.000,251.224 252.000 C 250.797 252.000,250.336 251.820,250.200 251.600 C 250.064 251.380,249.603 251.200,249.176 251.200 C 248.749 251.200,248.400 251.380,248.400 251.600 C 248.400 251.820,247.770 252.000,247.000 252.000 C 246.230 252.000,245.600 252.180,245.600 252.400 C 245.600 252.620,245.342 252.800,245.027 252.800 C 244.712 252.800,244.340 253.160,244.200 253.600 C 244.060 254.040,243.778 254.400,243.573 254.400 C 243.368 254.400,243.200 255.625,243.200 257.122 C 243.200 259.934,244.848 262.800,246.466 262.800 C 246.772 262.800,247.283 263.160,247.600 263.600 C 247.917 264.040,248.497 264.400,248.888 264.400 C 249.333 264.400,249.600 264.700,249.600 265.200 C 249.600 265.640,249.420 266.000,249.200 266.000 C 248.980 266.000,248.800 266.360,248.800 266.800 C 248.800 267.240,248.620 267.600,248.400 267.600 C 248.180 267.600,248.000 267.878,248.000 268.218 C 248.000 268.558,247.570 269.298,247.045 269.863 C 246.519 270.427,245.934 271.058,245.745 271.266 C 243.083 274.174,238.800 276.107,238.800 274.400 C 238.800 274.180,238.530 274.000,238.200 274.000 C 237.870 274.000,237.600 273.820,237.600 273.600 C 237.600 273.380,237.415 273.200,237.189 273.200 C 236.660 273.200,233.678 270.210,232.402 268.400 C 230.966 266.363,220.518 256.000,219.901 256.000 C 219.613 256.000,219.117 255.640,218.800 255.200 C 218.483 254.760,217.918 254.400,217.545 254.400 C 216.122 254.400,216.629 253.313,219.271 250.703 C 220.775 249.216,222.100 248.000,222.216 248.000 C 222.580 248.000,225.200 245.244,225.200 244.862 C 225.200 244.358,228.305 241.200,228.800 241.200 C 229.020 241.200,229.200 240.930,229.200 240.600 C 229.200 240.270,229.380 240.000,229.600 240.000 C 229.820 240.000,230.000 239.812,230.000 239.582 C 230.000 238.233,231.977 237.200,234.558 237.200 C 235.985 237.200,237.264 237.020,237.400 236.800 C 237.890 236.006,239.133 236.429,240.656 237.907 " stroke="none" fill="#ffffff" fill-rule="evenodd"></path><path id="path1" d="" stroke="none" fill="#ffffff" fill-rule="evenodd"></path><path id="path2" d="" stroke="none" fill="#ffffff" fill-rule="evenodd"></path><path id="path3" d="" stroke="none" fill="#ffffff" fill-rule="evenodd"></path><path id="path4" d="" stroke="none" fill="#ffffff" fill-rule="evenodd"></path></g></svg>