<?xml version="1.0" encoding="iso-8859-1"?>
<!-- Generator: Adobe Illustrator 19.0.0, SVG Export Plug-In . SVG Version: 6.00 Build 0)  -->
<svg version="1.1" id="Layer_1" xmlns="http://www.w3.org/2000/svg" xmlns:xlink="http://www.w3.org/1999/xlink" x="0px" y="0px"
	 viewBox="0 0 512 512" style="enable-background:new 0 0 512 512;" xml:space="preserve">
<g>
	<g>
		<path fill="#ffffff"  d="M511.33,299.279c-3.308-9.883-16.77-13.078-46.463-11.036c-16.728,1.152-32.94,3.025-57.259,7.2
			c15.658-18.179,28.034-33.743,36.875-46.387c16.435-23.504,20.438-36.289,13.816-44.131c-2.641-3.129-6.562-4.715-11.652-4.715
			c-14.495,0-44.757,15.011-77.849,34.514c8.482-27.034,14.924-50.456,18.817-68.486c7.294-33.791,6.19-49.528-3.811-54.318
			c-9.733-4.661-22.102,3.628-42.688,28.608c-2.69,3.264-2.226,8.093,1.041,10.784c3.261,2.69,8.092,2.227,10.784-1.041
			c13.813-16.76,20.808-21.936,23.786-23.531c1.216,6.207,1.33,30.683-27.884,120.057c-14.056,8.705-28.157,17.826-41.37,26.607
			c-1.212-13.095-3.055-31.438-5.515-51.718c13.638-20.865,26.12-38.907,37.11-53.638c2.531-3.391,1.832-8.192-1.558-10.721
			c-3.391-2.53-8.191-1.832-10.721,1.558c-8.473,11.354-17.798,24.619-27.828,39.57c-1.705-12.414-3.617-25.061-5.737-37.274
			c-11.145-64.185-21.03-77.399-32.443-77.492c-0.041,0-0.08,0-0.12,0c-11.576,0-21.841,13.785-34.245,80.463
			c-2.248,12.085-4.302,24.546-6.151,36.746c-15.849-23.724-30.153-43.561-41.82-57.964c-21.726-26.816-34.665-35.797-44.654-31.014
			c-10.254,4.911-11.236,20.539-3.501,55.743c4.898,22.294,12.725,48.854,19.837,71.278c-23.401-14.059-42.648-24.422-57.209-30.798
			c-21.474-9.405-33.21-10.365-39.246-3.216c-6.62,7.842-2.618,20.628,13.817,44.131c8.858,12.669,21.262,28.267,36.963,46.49
			c-23.446-3.891-43.042-6.369-58.395-7.373c-28.989-1.894-42.143,1.322-45.416,11.107c-3.639,10.876,8.83,21.617,21.508,30.689
			c12.178,8.714,29.914,19.276,52.716,31.392c1.145,0.609,6.967,2.764,10.36-3.171c2.1-3.673,0.566-8.375-3.17-10.36
			c-50.649-26.914-62.893-39.146-65.845-43.346c5.57-1.812,26.962-4.65,104.381,9.42c36.111,40.329,75.722,79.983,85.128,87.923
			c7.334,6.192,16.11,10.162,25.361,11.667c-3.89-0.017-7.795-0.631-11.57-1.895c-9.586-3.208-47.783-19.599-88.216-39.004
			c-3.813-1.828-8.39-0.224-10.221,3.592c-1.83,3.814-0.223,8.391,3.592,10.221c42.575,20.432,80.229,36.455,89.983,39.72
			c5.412,1.811,28.569,4.898,41.355-3.515c17.832,8.668,35.826,5.353,41.318,3.515c12.138-4.062,67.272-27.925,117.325-53.159
			c28.814-14.527,51.541-27.238,67.548-37.78C506.146,319.417,514.586,309.012,511.33,299.279z M240.352,173.145
			c9.65-54.015,17.268-68.989,20.295-73.033c2.893,4.002,10.011,18.53,18.524,69.826c7.293,43.946,11.938,92.018,13.797,113.203
			c-14.496,9.831-27.289,18.799-36.893,25.695c-8.789-6.329-19.459-13.791-31.189-21.773
			C226.834,267.899,232.222,218.632,240.352,173.145z M146.443,169.623c-6.614-28.387-6.26-39.121-5.547-42.902
			c5.594,2.941,24.738,18.19,76.089,97.029c-2.925,21.492-5.116,40.704-6.493,53.617c-12.957-8.64-26.693-17.566-40.261-26.073
			C159.639,219.198,151.416,190.969,146.443,169.623z M233.103,398.3c-6.382-1.118-12.429-3.897-17.499-8.176
			c-8.937-7.547-47.395-46.015-83.407-86.223c-55.555-62.03-64.613-82.555-65.985-88.385c5.467,0.354,24.219,4.998,81.601,39.931
			c33.646,20.485,70.948,45.603,95.25,62.919c-2.043,1.542-3.544,2.711-4.385,3.424C195.722,358.256,232.528,397.043,233.103,398.3z
			 M244.151,385.712c-6.384-7.563-9.441-17.159-8.609-27.022c0.832-9.862,5.457-18.809,13.019-25.194
			c8.318-7.021,50.448-36.963,94.325-64.814c72.227-45.846,95.67-52.608,102.861-53.117c-1.411,5.896-10.576,26.482-65.972,88.336
			c-36.012,40.207-74.469,78.675-83.407,86.222c-6.677,5.637-15.159,8.741-23.881,8.741
			C261.536,398.863,251.208,394.07,244.151,385.712z M401.809,362.268c-48.312,24.07-98.254,45.621-109.349,49.334
			c-3.878,1.298-7.823,1.908-11.705,1.911c9.345-1.501,18.186-5.513,25.496-11.683c9.406-7.94,49.017-47.595,85.128-87.924
			c77.458-14.08,98.835-11.231,104.389-9.417C492.347,309.396,476.359,325.127,401.809,362.268z"/>
	</g>
</g>
<g>
	<g>
		<path fill="#ffffff"  d="M110.805,362.588c-2.816-1.402-5.626-2.811-8.422-4.227c-3.776-1.908-8.385-0.398-10.295,3.377
			c-1.91,3.775-0.398,8.384,3.377,10.295c2.826,1.429,5.666,2.854,8.511,4.271c1.096,0.545,7.479,2.377,10.272-3.443
			C116.078,369.046,114.592,364.473,110.805,362.588z"/>
	</g>
</g>
<g>
	<g>
		<path fill="#ffffff"  d="M350.535,301.964c-3.105-2.875-7.953-2.684-10.826,0.422c-1.74,1.88-3.466,3.739-5.178,5.574
			c-2.885,3.095-2.822,8.059,0.376,10.828c4.069,3.524,9.318,1.24,10.828-0.376c1.725-1.851,3.467-3.726,5.221-5.622
			C353.83,309.684,353.641,304.838,350.535,301.964z"/>
	</g>
</g>
<g>
	<g>
		<path fill="#ffffff"  d="M329.564,324.44c-3.057-2.926-7.906-2.82-10.831,0.236c-21.047,21.987-37.993,38.537-42.132,42.032
			c-3.233,2.729-3.751,7.657-0.912,10.794c4.3,4.753,9.357,2.126,10.794,0.912c5.047-4.26,23.043-21.968,43.316-43.144
			C332.727,332.215,332.621,327.365,329.564,324.44z"/>
	</g>
</g>
<g>
</g>
<g>
</g>
<g>
</g>
<g>
</g>
<g>
</g>
<g>
</g>
<g>
</g>
<g>
</g>
<g>
</g>
<g>
</g>
<g>
</g>
<g>
</g>
<g>
</g>
<g>
</g>
<g>
</g>
</svg>
