<svg height="48" viewBox="0 0 48 48" width="48" xmlns="http://www.w3.org/2000/svg"><path d="m36.828 37.8h-25.656v-2.406c0-2.025 4.411-7.88 12.828-7.88s12.828 5.855 12.828 7.88v2.407zm-12.828-27.6c3.653 0 6.625 2.995 6.625 6.68 0 3.683-2.972 6.68-6.625 6.68-3.654 0-6.625-2.997-6.625-6.68 0-3.685 2.971-6.68 6.625-6.68zm5.478 14.866a9.9 9.9 0 0 0 4.32-8.186c0-5.448-4.395-9.88-9.798-9.88s-9.798 4.432-9.798 9.88a9.897 9.897 0 0 0 4.32 8.186c-6.846 1.958-10.522 7.297-10.522 10.328v4.006c0 .884.71 1.6 1.587 1.6h28.826c.877 0 1.587-.716 1.587-1.6v-4.006c0-3.031-3.676-8.37-10.522-10.328z" fill-rule="evenodd"/></svg>